<svg width="150" height="150" viewBox="0 0 150 150" fill="none" xmlns="http://www.w3.org/2000/svg">
<path d="M125.269 23.5888C121.303 19.1563 115.928 17.5239 110.908 14.7352C108.364 13.322 105.864 11.9543 103.368 10.4567C100.568 8.77677 97.3455 7.79156 94.3871 6.43229C92.0287 5.34869 89.5008 4.21035 86.9315 3.7635C81.9336 2.89432 77.1622 1.47597 72.0413 1.47597C66.9727 1.47597 61.9403 1.43258 56.897 1.83604C39.4803 3.22938 23.6681 14.1173 15.3825 29.3076C13.6679 32.451 11.5876 35.3679 10.1296 38.6484C8.18091 43.0329 7.03625 47.1537 5.75872 51.7529L5.74515 51.8017C4.04463 57.9236 3.16903 64.1317 1.9326 70.3138C0.709808 76.4277 2.21121 83.2782 3.07636 89.3342C3.87957 94.9566 5.25207 101.069 7.63025 106.258C8.85223 108.924 9.93765 111.723 11.2734 114.328C12.4027 116.53 14.2392 118.374 15.6366 120.407C16.7083 121.965 18.0517 123.329 19.1527 124.876C20.9781 127.44 23.0917 129.225 25.1892 131.484C26.7795 133.197 29.19 134.529 31.1834 135.763C33.335 137.095 35.4195 138.932 37.7918 139.851C48.763 144.098 59.9981 145.898 71.5965 147.582C76.799 148.337 81.9845 147.497 87.1433 147.497C91.2046 147.497 95.1031 145.076 98.8775 143.769C101.258 142.945 103.546 141.58 105.91 140.634C107.9 139.838 110.19 139.403 112.094 138.537C116.609 136.485 121.351 134.264 125.078 130.891C129.129 127.226 133.382 123.376 136.643 119.136C137.977 117.401 138.906 115.342 139.841 113.396C141.298 110.365 143.224 107.718 144.141 104.457C146.615 95.6622 148.525 87.2956 148.525 78.0236C148.525 69.7121 146.819 61.9776 144.628 54.0893C143.613 50.4348 141.142 47.3909 139.841 43.8801C139.285 42.3769 138.101 41.2135 137.469 39.7922C137.162 39.1007 136.823 38.6224 136.685 37.8647C136.498 36.8356 135.377 36.3839 135.182 35.4077C134.576 32.3821 129.924 30.2146 128.404 27.7826C127.499 26.3353 126.028 25.1077 125.269 23.5888Z" fill="#FCE8F3" style="fill:#FCE8F3;fill:color(display-p3 0.9882 0.9098 0.9529);fill-opacity:1;"/>
<path fill-rule="evenodd" clip-rule="evenodd" d="M70.6901 0.000709629C71.1409 0.00106364 71.5914 0.0014173 72.0413 0.0014173C75.8614 0.0014173 79.5732 0.773241 83.1392 1.51475C84.5098 1.79975 85.8588 2.08026 87.1841 2.31076C89.9719 2.79558 92.6693 4.02027 95.0028 5.0924C96.0245 5.56185 97.0626 5.97865 98.1411 6.41163C98.5856 6.59012 99.037 6.77135 99.4969 6.96016C101.039 7.59328 102.628 8.29334 104.126 9.19224C106.25 10.4662 108.375 11.6446 110.555 12.8527C110.91 13.0496 111.266 13.2472 111.624 13.4462C112.839 14.1209 114.082 14.7298 115.354 15.344C115.486 15.4082 115.62 15.4725 115.753 15.5369C116.887 16.084 118.044 16.6424 119.176 17.2434C121.715 18.5927 124.221 20.2057 126.368 22.6056L126.499 22.7527L126.588 22.9293C126.879 23.5117 127.327 24.0772 127.906 24.7579C127.971 24.8347 128.038 24.9135 128.107 24.9942C128.608 25.5799 129.193 26.264 129.654 27.0011C129.921 27.4289 130.371 27.9088 131.004 28.4777C131.398 28.8313 131.796 29.163 132.221 29.517C132.499 29.7486 132.788 29.9897 133.095 30.2528C133.825 30.8779 134.592 31.5772 135.223 32.3486C135.853 33.1202 136.412 34.0404 136.627 35.1185C136.626 35.1092 136.626 35.1348 136.685 35.2192C136.755 35.3213 136.85 35.4273 137.031 35.6283C137.044 35.6422 137.057 35.6567 137.07 35.6719C137.378 36.0115 137.965 36.6578 138.136 37.6009C138.175 37.8133 138.241 37.9969 138.35 38.2299C138.399 38.3361 138.452 38.4401 138.516 38.5691C138.529 38.5935 138.541 38.6189 138.555 38.6453C138.634 38.8029 138.725 38.9877 138.816 39.1933C139.05 39.7193 139.383 40.2104 139.811 40.8409C139.842 40.8861 139.873 40.932 139.904 40.9786C140.346 41.6307 140.877 42.4301 141.224 43.3679C141.76 44.8147 142.511 46.1788 143.325 47.6588C143.428 47.8447 143.531 48.0325 143.635 48.2225C144.543 49.8804 145.491 51.687 146.049 53.6946C148.252 61.6246 150 69.5115 150 78.0236C150 87.501 148.045 96.0236 145.56 104.857C145.058 106.642 144.288 108.23 143.493 109.711C143.215 110.228 142.94 110.721 142.671 111.204C142.146 112.148 141.641 113.055 141.17 114.035C141.079 114.225 140.986 114.419 140.892 114.616C140.057 116.367 139.116 118.34 137.812 120.035C134.462 124.39 130.115 128.322 126.092 131.962L126.068 131.984C122.145 135.534 117.194 137.839 112.705 139.88C111.649 140.359 110.511 140.71 109.457 141.025C109.357 141.054 109.257 141.084 109.159 141.113C108.187 141.403 107.291 141.67 106.457 142.003C105.474 142.396 104.504 142.866 103.48 143.363C103.335 143.433 103.188 143.504 103.041 143.575C101.876 144.138 100.64 144.719 99.3598 145.162C98.4695 145.471 97.5594 145.849 96.603 146.258C96.4215 146.336 96.2379 146.415 96.0525 146.495C95.2757 146.829 94.4681 147.176 93.6578 147.495C91.6519 148.284 89.4544 148.971 87.1433 148.971C85.4085 148.971 83.6971 149.067 81.9363 149.166C81.1212 149.212 80.2955 149.258 79.452 149.296C76.8328 149.412 74.1253 149.439 71.3847 149.041C59.7911 147.358 48.404 145.54 37.2596 141.226C35.912 140.704 34.6854 139.937 33.5744 139.18C33.1634 138.9 32.7782 138.629 32.406 138.367C31.7228 137.885 31.0832 137.435 30.4073 137.016C30.1316 136.846 29.839 136.668 29.5349 136.484C27.7697 135.415 25.6141 134.109 24.1087 132.487C23.5223 131.856 22.9021 131.233 22.27 130.598C20.8049 129.127 19.2754 127.591 17.9515 125.731C17.4607 125.041 16.9143 124.386 16.3256 123.679L16.2508 123.59C15.6471 122.865 15.0013 122.085 14.4216 121.242C13.9326 120.531 13.397 119.857 12.8238 119.137C12.6183 118.878 12.408 118.614 12.1933 118.339C11.4067 117.334 10.5929 116.232 9.96135 115C9.09819 113.317 8.31265 111.499 7.5533 109.741C7.12693 108.754 6.70882 107.786 6.28986 106.872C3.82777 101.5 2.42927 95.2307 1.61671 89.5427C1.48127 88.5947 1.32654 87.6116 1.16769 86.6024C0.343068 81.3633 -0.592354 75.4202 0.486755 70.0246C0.850719 68.2048 1.18686 66.3591 1.52548 64.4998C2.31635 60.1572 3.1207 55.7406 4.32447 51.4071L4.35035 51.3139C5.61989 46.7435 6.78931 42.5335 8.78221 38.0495C9.54867 36.325 10.4708 34.7135 11.3945 33.1696C11.6347 32.768 11.8737 32.3732 12.1103 31.9821C12.797 30.8476 13.4644 29.7448 14.088 28.6015C22.5967 13.0023 38.8358 1.80168 56.7794 0.366188C61.4387 -0.00655484 66.0857 -0.00290585 70.6901 0.000709629ZM7.17948 52.1475L7.16593 52.1963C5.99929 56.3962 5.2345 60.5975 4.45527 64.8782C4.11112 66.7687 3.76416 68.6748 3.37852 70.603C2.41286 75.4313 3.24155 80.7419 4.06067 85.9911C4.22432 87.0398 4.3876 88.0862 4.5361 89.1257C5.32994 94.6825 6.67644 100.638 8.97072 105.643C9.44995 106.689 9.89175 107.713 10.3265 108.722C11.052 110.404 11.7579 112.041 12.5855 113.655C13.0833 114.626 13.7524 115.546 14.5158 116.522C14.6971 116.754 14.8863 116.992 15.0795 117.234C15.6707 117.978 16.2992 118.768 16.8517 119.571C17.3437 120.287 17.9055 120.968 18.5166 121.702L18.6128 121.817C19.1835 122.502 19.7959 123.237 20.3539 124.021C21.5347 125.679 22.7856 126.933 24.1624 128.313C24.8329 128.986 25.5332 129.688 26.2698 130.481C27.4684 131.772 29.2023 132.827 30.9872 133.914C31.3106 134.111 31.6357 134.308 31.9595 134.509C32.7051 134.97 33.4747 135.512 34.2056 136.026C34.5604 136.276 34.906 136.519 35.2354 136.743C36.2976 137.467 37.2995 138.079 38.3242 138.476C49.122 142.655 60.2052 144.438 71.8084 146.122C74.2702 146.48 76.7567 146.464 79.3206 146.349C80.091 146.315 80.877 146.271 81.6721 146.227C83.475 146.126 85.3244 146.022 87.1433 146.022C88.8935 146.022 90.676 145.499 92.5783 144.751C93.341 144.451 94.095 144.126 94.8682 143.794C95.0584 143.712 95.2497 143.63 95.4427 143.547C96.4058 143.135 97.3983 142.721 98.3952 142.376C99.4957 141.995 100.594 141.482 101.759 140.919C101.901 140.851 102.044 140.782 102.188 140.712C103.203 140.219 104.275 139.7 105.362 139.265C106.329 138.878 107.357 138.573 108.306 138.29C108.409 138.26 108.511 138.229 108.612 138.199C109.677 137.881 110.635 137.581 111.484 137.195C116.023 135.132 120.557 132.994 124.089 129.798C128.16 126.115 132.308 122.352 135.474 118.237C136.577 116.804 137.382 115.12 138.24 113.326C138.33 113.138 138.421 112.948 138.512 112.757C139.02 111.701 139.6 110.658 140.151 109.668C140.409 109.204 140.66 108.751 140.895 108.315C141.656 106.899 142.307 105.534 142.722 104.058C145.185 95.3008 147.051 87.0901 147.051 78.0236C147.051 69.9126 145.387 62.3305 143.207 54.4839C142.75 52.837 141.955 51.2944 141.048 49.6391C140.948 49.4551 140.845 49.2694 140.742 49.0817C139.939 47.6259 139.076 46.0595 138.459 44.3922C138.249 43.8268 137.91 43.2929 137.462 42.6322C137.425 42.5765 137.386 42.5196 137.346 42.4615C136.949 41.8775 136.468 41.171 136.122 40.391C136.059 40.2509 135.993 40.1166 135.918 39.9663C135.847 39.8244 135.759 39.651 135.677 39.4766C135.506 39.1082 135.334 38.6738 135.235 38.1285C135.227 38.0844 135.204 38.0053 134.842 37.6043C134.824 37.5846 134.805 37.5633 134.784 37.5404C134.491 37.2198 133.914 36.5894 133.736 35.6969C133.649 35.2622 133.399 34.7769 132.939 34.2151C132.48 33.6531 131.875 33.0913 131.176 32.4923C130.937 32.2872 130.674 32.0681 130.405 31.8432C129.941 31.4557 129.456 31.0511 129.033 30.6714C128.348 30.0553 127.646 29.3523 127.153 28.5641C126.818 28.0269 126.387 27.522 125.869 26.9153C125.801 26.8345 125.73 26.7519 125.658 26.6672C125.124 26.0383 124.508 25.2938 124.048 24.4371C122.255 22.4762 120.133 21.0916 117.792 19.8477C116.714 19.2752 115.61 18.7425 114.469 18.1919C114.337 18.128 114.204 18.0639 114.071 17.9994C112.798 17.3847 111.488 16.7438 110.192 16.0241C109.838 15.8275 109.484 15.6313 109.13 15.4352C106.954 14.2284 104.779 13.023 102.609 11.721C101.308 10.94 99.8855 10.3075 98.377 9.68826C97.9641 9.51877 97.5403 9.3486 97.1108 9.17613C96.0057 8.73241 94.8629 8.27353 93.7715 7.77212C91.3881 6.67704 89.0298 5.62504 86.6789 5.21618C85.1443 4.9493 83.6754 4.64362 82.2403 4.34498C78.792 3.62737 75.5392 2.95045 72.0413 2.95045C71.5938 2.95045 71.1473 2.95012 70.7017 2.9498C66.0772 2.94641 61.5487 2.9431 57.0146 3.30583C40.1249 4.657 24.7396 15.2323 16.677 30.0137C16.0187 31.2204 15.302 32.4045 14.6062 33.5542C14.376 33.9345 14.148 34.3111 13.9252 34.6836C13.0156 36.204 12.1686 37.6913 11.4771 39.2472C9.57904 43.5178 8.46024 47.5367 7.17948 52.1475Z" fill="#E74694" style="fill:#E74694;fill:color(display-p3 0.9059 0.2745 0.5804);fill-opacity:1;"/>
<path fill-rule="evenodd" clip-rule="evenodd" d="M41.136 53.253C41.2175 52.4381 41.9442 51.8435 42.7591 51.925C44.7655 52.1257 46.9905 52.9518 49.0153 53.9055C51.0656 54.8712 53.0297 56.0255 54.5415 56.9774C55.0715 57.3111 55.594 57.599 56.1574 57.9094C56.3896 58.0374 56.6287 58.1691 56.8782 58.3095C57.7016 58.7728 58.5787 59.2997 59.428 59.9887C59.69 60.2013 60.1166 60.441 60.7296 60.7249C61.1031 60.8979 61.4714 61.0551 61.8646 61.2228C62.132 61.337 62.4109 61.456 62.7109 61.5883C63.3984 61.8915 64.1394 62.2414 64.7811 62.6564C65.4044 63.0595 66.0895 63.6209 66.4861 64.4141C66.8523 65.1466 66.5554 66.0374 65.8229 66.4036C65.0904 66.7699 64.1997 66.473 63.8334 65.7405C63.7863 65.6463 63.6224 65.439 63.1705 65.1467C62.7368 64.8663 62.1761 64.5938 61.5142 64.3019C61.2865 64.2015 61.0342 64.0936 60.7742 63.9824C60.3393 63.7964 59.8827 63.6011 59.4832 63.416C58.8303 63.1136 58.1222 62.7485 57.5594 62.2919C56.906 61.7618 56.2014 61.3317 55.4239 60.8942C55.2244 60.782 55.0149 60.6666 54.7992 60.5477C54.208 60.2219 53.5696 59.8701 52.9613 59.4872C51.5045 58.5699 49.6523 57.4838 47.7516 56.5885C45.8253 55.6813 43.9648 55.0262 42.464 54.8761C41.6491 54.7946 41.0545 54.0679 41.136 53.253Z" fill="#E74694" style="fill:#E74694;fill:color(display-p3 0.9059 0.2745 0.5804);fill-opacity:1;"/>
<path fill-rule="evenodd" clip-rule="evenodd" d="M111.18 49.9188C111.546 50.6513 111.249 51.5421 110.517 51.9083C107.931 53.2009 105.194 54.4295 102.493 55.6418C100.894 56.3591 99.3087 57.0707 97.7749 57.7865C97.4617 57.9326 96.9674 58.1375 96.4022 58.3718C96.1345 58.4828 95.851 58.6003 95.5632 58.7213C94.6286 59.1144 93.562 59.5791 92.549 60.086C91.5244 60.5988 90.614 61.1257 89.9642 61.6313C89.6401 61.8834 89.4228 62.0982 89.2923 62.2671C89.2126 62.3702 89.1859 62.4292 89.1789 62.4462C89.077 63.2478 88.3502 63.8221 87.5442 63.7325C86.7302 63.6421 86.1437 62.9089 86.2341 62.095C86.3075 61.4345 86.6152 60.8809 86.946 60.4531C87.2809 60.0199 87.7035 59.6324 88.1431 59.2904C89.0208 58.6077 90.1332 57.9786 91.2217 57.4338C92.322 56.8832 93.4589 56.3889 94.4135 55.9875C94.7655 55.8394 95.0831 55.7078 95.3641 55.5914C95.8762 55.3792 96.2665 55.2176 96.5207 55.0989C98.1435 54.3416 99.7656 53.614 101.376 52.8914C104.027 51.7027 106.647 50.5275 109.19 49.2556C109.923 48.8894 110.814 49.1863 111.18 49.9188Z" fill="#E74694" style="fill:#E74694;fill:color(display-p3 0.9059 0.2745 0.5804);fill-opacity:1;"/>
<path fill-rule="evenodd" clip-rule="evenodd" d="M83.1846 99.8333C75.7042 97.6961 66.4355 97.6667 58.8839 99.7263C57.2604 100.169 55.5199 100.395 53.8952 100.606C53.5259 100.654 53.1626 100.701 52.8079 100.75C50.8242 101.023 49.0386 101.351 47.4753 102.061C46.5244 102.494 45.3928 102.814 44.3831 103.1C44.0447 103.196 43.7201 103.288 43.4205 103.379C42.1077 103.777 41.0912 104.196 40.3823 104.834C39.7736 105.381 38.836 105.332 38.2881 104.723C37.7403 104.115 37.7896 103.177 38.3983 102.629C39.628 101.522 41.1962 100.954 42.559 100.541C42.9914 100.409 43.3977 100.294 43.7819 100.185C44.7144 99.9212 45.5169 99.6939 46.248 99.3615C48.2352 98.4583 50.3945 98.0885 52.4037 97.8121C52.8095 97.7562 53.2075 97.7043 53.5983 97.6533C55.2084 97.4431 56.6957 97.249 58.1035 96.865C66.17 94.6651 75.9904 94.6934 83.9994 96.9817C87.8674 98.0868 92.5493 99.0273 96.4096 99.0273C97.3772 99.0273 98.3953 99.0628 99.4057 99.098C99.5818 99.1041 99.7576 99.1102 99.9329 99.1162C101.128 99.1566 102.316 99.1887 103.479 99.1617C105.828 99.1073 107.921 98.812 109.593 97.9759C110.325 97.6097 111.216 97.9066 111.582 98.6391C111.949 99.3716 111.652 100.262 110.919 100.629C108.656 101.76 106.034 102.069 103.547 102.127C102.293 102.156 101.032 102.121 99.8326 102.08C99.6509 102.074 99.4709 102.068 99.2926 102.062C98.2797 102.026 97.321 101.993 96.4096 101.993C92.1551 101.993 87.1723 100.973 83.1846 99.8333Z" fill="#E74694" style="fill:#E74694;fill:color(display-p3 0.9059 0.2745 0.5804);fill-opacity:1;"/>
</svg>
