<svg width="240" height="253" viewBox="0 0 240 253" fill="none" xmlns="http://www.w3.org/2000/svg">
<path d="M135.132 156.651C106.634 183.363 96.493 241.735 96.493 241.735C96.493 241.735 141.076 244.795 182.935 202.144C209.065 175.519 220.583 114.6 220.583 114.6C220.583 114.6 160.172 133.179 135.132 156.651Z" fill="#F17EB8" style="fill:#F17EB8;fill:color(display-p3 0.9451 0.4941 0.7216);fill-opacity:1;"/>
<path fill-rule="evenodd" clip-rule="evenodd" d="M225.963 115.609L220.583 114.6L218.967 109.392L227.643 106.724L225.963 115.609ZM96.4929 241.735C91.0985 240.806 91.0987 240.805 91.099 240.803L91.1018 240.787L91.1089 240.747C91.1149 240.713 91.1234 240.665 91.1345 240.604C91.1566 240.481 91.189 240.304 91.2319 240.074C91.3176 239.616 91.4454 238.951 91.6173 238.1C91.9609 236.399 92.4812 233.955 93.1946 230.945C94.62 224.931 96.8235 216.628 99.9404 207.462C106.102 189.34 116.11 166.994 131.379 152.682C144.689 140.206 166.883 129.382 185.138 121.794C194.378 117.953 202.817 114.859 208.945 112.725C212.011 111.657 214.504 110.828 216.236 110.264C217.103 109.982 217.779 109.766 218.242 109.62C218.473 109.546 218.651 109.491 218.773 109.453C218.834 109.434 218.881 109.419 218.913 109.409L218.951 109.397L218.965 109.393C218.966 109.393 218.967 109.392 220.583 114.6C225.963 115.609 225.963 115.61 225.962 115.611L225.962 115.615L225.952 115.667C225.945 115.701 225.936 115.75 225.924 115.813C225.899 115.939 225.863 116.121 225.816 116.358C225.721 116.831 225.58 117.52 225.392 118.401C225.017 120.163 224.453 122.697 223.696 125.816C222.183 132.048 219.887 140.642 216.757 150.095C210.576 168.758 200.852 191.687 186.85 205.953C165.162 228.052 142.669 238.393 125.493 243.182C116.919 245.573 109.683 246.577 104.544 246.98C101.973 247.182 99.9235 247.234 98.4888 247.234C97.7714 247.234 97.2072 247.22 96.8081 247.206C96.6085 247.199 96.4501 247.192 96.3343 247.186C96.2765 247.183 96.2292 247.18 96.1929 247.178L96.1465 247.175L96.1294 247.174L96.1224 247.173C96.1193 247.173 96.1164 247.173 96.4929 241.735ZM96.4929 241.735L91.0985 240.806L90.0645 246.757L96.1164 247.173L96.4929 241.735ZM103.228 236.147C103.415 235.314 103.623 234.413 103.851 233.449C105.218 227.683 107.331 219.723 110.311 210.958C116.344 193.215 125.656 173.019 138.884 160.619C150.616 149.623 171.147 139.423 189.357 131.854C198.349 128.116 206.579 125.098 212.56 123.015C212.763 122.944 212.964 122.874 213.162 122.806C213.126 122.954 213.09 123.103 213.054 123.254C211.591 129.276 209.374 137.576 206.358 146.681C200.248 165.133 191.148 185.976 179.019 198.334C158.849 218.886 138.121 228.341 122.541 232.685C114.737 234.861 108.211 235.757 103.683 236.113C103.529 236.125 103.377 236.136 103.228 236.147Z" fill="#7E3AF2" style="fill:#7E3AF2;fill:color(display-p3 0.4941 0.2275 0.9490);fill-opacity:1;"/>
<path d="M46.5376 152.165C27.1112 156.225 20.3054 113.329 20.3054 113.329C20.3054 113.329 54.0651 124.23 105.161 76.991C156.257 29.7517 193.21 14.0809 193.21 14.0809C193.21 14.0809 216.705 59.0492 196.404 66.771C181.553 72.4194 162.776 47.0538 160.022 43.186C163.669 48.4436 194.556 94.593 164.241 107.651C141.667 117.375 125.159 97.2837 119.102 88.19C124.683 98.0925 136.053 123.183 116.566 135.813C82.5784 157.843 69.1202 113.329 69.1202 113.329C69.1202 113.329 65.0142 148.304 46.5376 152.165Z" fill="white" style="fill:white;fill-opacity:1;"/>
<path fill-rule="evenodd" clip-rule="evenodd" d="M198.067 11.5655L193.21 14.0809L191.065 9.06617L195.728 7.08875L198.067 11.5655ZM179.666 69.5597C180.66 70.1011 181.673 70.5954 182.703 71.0303C187.391 73.0111 192.885 73.9442 198.357 71.8628C205.935 68.9804 209.095 62.5115 209.903 55.9432C210.684 49.5939 209.435 42.4381 207.702 36.0992C205.941 29.6552 203.532 23.5331 201.588 19.0625C200.611 16.8161 199.741 14.9614 199.111 13.6609C198.796 13.0101 198.54 12.4968 198.361 12.1411C198.271 11.9632 198.2 11.8246 198.151 11.7279C198.126 11.6795 198.106 11.6416 198.092 11.6144L198.068 11.568C198.067 11.5667 198.067 11.5655 193.21 14.0809C191.065 9.06617 191.063 9.06685 191.061 9.06758L191.046 9.07398L191.015 9.08761C190.989 9.09865 190.954 9.1136 190.911 9.13253C190.824 9.17038 190.701 9.22414 190.544 9.29428C190.23 9.43456 189.776 9.64039 189.189 9.91566C188.016 10.4662 186.308 11.2945 184.112 12.4318C179.719 14.7064 173.37 18.2168 165.424 23.2123C149.529 33.204 127.246 49.1347 101.436 72.9968C76.4997 96.0508 56.1477 104.602 42.4195 107.546C35.5373 109.022 30.2421 109.106 26.7715 108.858C25.0335 108.733 23.7463 108.525 22.9402 108.362C22.5371 108.281 22.2541 108.212 22.0951 108.17C22.0234 108.151 21.9769 108.138 21.956 108.132L13.5054 105.403L14.8979 114.179L20.3054 113.329C14.8979 114.179 14.8981 114.181 14.8983 114.182L14.9007 114.197L14.906 114.23C14.9104 114.257 14.9165 114.295 14.9244 114.342C14.9401 114.436 14.9628 114.571 14.9926 114.742C15.0522 115.084 15.1405 115.574 15.2589 116.189C15.4954 117.419 15.8534 119.157 16.3451 121.224C17.3231 125.335 18.855 130.855 21.0579 136.304C23.2255 141.667 26.2189 147.412 30.3183 151.609C34.5546 155.947 40.4253 159.012 47.6621 157.5C53.9543 156.185 58.7012 152.274 62.1836 147.813C65.6536 143.367 68.1358 138.048 69.9086 133.145C70.305 132.049 70.6703 130.961 71.0065 129.894C72.4364 132.108 74.1081 134.366 76.0389 136.49C80.3498 141.232 86.2308 145.603 93.8509 146.959C101.572 148.334 110.182 146.455 119.553 140.381C131.605 132.57 133.933 120.723 132.669 110.324C132.64 110.082 132.608 109.84 132.575 109.599C141.412 115.248 153.091 118.393 166.414 112.654C175.656 108.673 180.575 101.872 182.243 93.9237C183.832 86.3525 182.403 78.1459 180.088 70.851C179.951 70.4194 179.81 69.9889 179.666 69.5597ZM164.507 40.0597C164.396 39.8999 164.307 39.7745 164.244 39.6853C164.211 39.638 164.185 39.6009 164.166 39.5741L164.131 39.5264L164.131 39.5258L164.131 39.5253C164.131 39.5253 164.131 39.5252 159.678 42.6971L164.131 39.5253L155.154 45.7666L159.678 42.6971C155.154 45.7666 155.154 45.7665 155.154 45.7666L155.155 45.7679L155.156 45.7695L155.167 45.7844L155.19 45.8182C155.209 45.846 155.236 45.8843 155.269 45.9326C155.333 46.0237 155.422 46.1507 155.536 46.3103C157.338 48.9105 165.532 61.168 169.647 74.1357C171.72 80.6676 172.557 86.7753 171.525 91.6941C170.572 96.2362 167.983 100.1 162.067 102.649C152.848 106.62 145.01 104.609 138.443 100.395C131.75 96.1011 126.653 89.635 123.773 85.3398C123.033 84.0347 122.39 82.9814 121.92 82.2354C121.673 81.8448 121.474 81.5376 121.331 81.3217C121.26 81.2137 121.203 81.1284 121.161 81.0669C121.141 81.0361 121.124 81.0113 121.111 80.9925L121.095 80.9689L121.089 80.9605L121.086 80.9557L121.086 80.9551C121.085 80.9547 121.085 80.9544 116.566 84.0315L121.085 80.9544L111.715 86.5574L116.566 84.0315C111.715 86.5574 111.715 86.5578 111.716 86.5583L111.716 86.5591L111.717 86.5609L111.724 86.5748L111.739 86.6019L111.751 86.625C111.76 86.6421 111.771 86.6621 111.783 86.6848C111.82 86.7526 111.87 86.8453 111.934 86.9611C112.062 87.1926 112.245 87.5172 112.482 87.9213C112.934 88.6936 113.584 89.7606 114.423 91.0275C117.093 95.7935 120.836 103.702 121.799 111.633C122.744 119.413 121.014 126.426 113.579 131.245C105.957 136.186 100.139 137.004 95.7776 136.228C91.3151 135.434 87.4588 132.807 84.1567 129.175C80.8512 125.538 78.3802 121.191 76.716 117.637C75.8942 115.882 75.2931 114.372 74.902 113.315C74.7068 112.787 74.5652 112.376 74.4756 112.107C74.4308 111.972 74.3991 111.874 74.3802 111.815C74.3762 111.802 74.3728 111.791 74.3699 111.782C74.3661 111.77 74.3634 111.761 74.3617 111.755L74.3612 111.754C74.3613 111.754 74.3614 111.755 74.347 111.759L63.692 112.695C63.6829 112.694 63.6829 112.694 63.6829 112.694L63.6826 112.696L63.6756 112.753C63.6692 112.804 63.6586 112.887 63.6434 112.999C63.6131 113.224 63.5649 113.568 63.4963 114.014C63.3589 114.906 63.1406 116.204 62.8225 117.781C62.1831 120.95 61.1562 125.167 59.6067 129.453C58.0434 133.776 56.0348 137.925 53.5383 141.123C51.0543 144.306 48.3592 146.215 45.4131 146.831C42.9367 147.348 40.6717 146.573 38.1683 144.01C35.5279 141.306 33.1774 137.088 31.2152 132.234C29.4683 127.913 28.1678 123.44 27.2656 119.806C31.6239 120.01 37.5124 119.75 44.7249 118.203C60.6506 114.788 82.7264 105.171 108.886 80.9853C134.172 57.608 155.913 42.0837 171.269 32.4301C178.948 27.6031 185.031 24.2434 189.164 22.1034C189.685 21.8336 190.175 21.5832 190.633 21.3517C190.919 21.9827 191.224 22.6655 191.54 23.3933C193.367 27.5955 195.562 33.1981 197.137 38.9613C198.741 44.8297 199.559 50.3638 199.035 54.6178C198.539 58.6528 197.023 60.7006 194.45 61.6792C192.497 62.4219 190.075 62.3026 186.98 60.995C183.857 59.6758 180.542 57.3381 177.319 54.4781C170.919 48.7985 165.837 41.926 164.507 40.0597Z" fill="#7E3AF2" style="fill:#7E3AF2;fill:color(display-p3 0.4941 0.2275 0.9490);fill-opacity:1;"/>
<path fill-rule="evenodd" clip-rule="evenodd" d="M28.4986 122.772C29.0894 137.142 31.3226 160.221 39.5535 181.091C45.4812 196.122 54.0301 208.693 66.0723 216.356C77.7554 223.791 94.5711 227.783 119.698 222.278C167.62 211.781 197.667 163.322 207.959 113.031C213.021 88.2941 212.772 65.1726 208.376 48.9798C203.76 31.9756 196.731 28.1619 191.613 28.1619C180.936 28.1619 173.838 31.8661 166.63 38.5834C162.771 42.1796 158.98 46.5654 154.618 51.8873C153.567 53.1706 152.473 54.5201 151.34 55.9175C147.955 60.0928 144.225 64.6947 140.246 69.2284C129.35 81.6441 115.548 94.8171 95.295 105.096C77.859 113.945 56.2553 120.343 28.4986 122.772ZM147.301 18.0229C158.473 7.61174 172.181 4.33182e-06 191.613 0C216.606 -6.06455e-06 230.042 20.8589 235.682 41.6312C241.541 63.215 241.339 90.9742 235.674 118.654C224.513 173.195 190.012 235.711 125.776 249.783C94.8244 256.563 70.0287 252.298 50.8388 240.085C32.0079 228.101 20.4223 209.633 13.2252 191.384C-0.324803 157.026 -0.0482534 118.811 0.0112801 110.584C0.0143439 110.16 0.0168326 109.816 0.0168326 109.557L0.0168369 95.9979L13.6251 95.4857C44.8072 94.3119 66.4889 88.1063 82.4493 80.0059C98.3826 71.9194 109.438 61.5328 118.947 50.698C122.53 46.6155 125.753 42.6397 129.045 38.5786C130.248 37.0947 131.46 35.5994 132.703 34.0834C137.178 28.6227 141.97 22.9911 147.301 18.0229Z" fill="#7E3AF2" style="fill:#7E3AF2;fill:color(display-p3 0.4941 0.2275 0.9490);fill-opacity:1;"/>
</svg>
