<svg width="150" height="150" viewBox="0 0 150 150" fill="none" xmlns="http://www.w3.org/2000/svg">
<path d="M125.269 23.5889C121.303 19.1564 115.928 17.524 110.908 14.7353C108.364 13.322 105.864 11.9543 103.368 10.4567C100.568 8.77683 97.3456 7.79162 94.3872 6.43235C92.0287 5.34875 89.5008 4.21041 86.9315 3.76356C81.9337 2.89438 77.1622 1.47603 72.0413 1.47603C66.9728 1.47603 61.9403 1.43264 56.897 1.8361C39.4803 3.22944 23.6681 14.1174 15.3825 29.3077C13.6679 32.451 11.5876 35.368 10.1296 38.6485C8.18094 43.033 7.03628 47.1538 5.75875 51.753L5.74518 51.8018C4.04466 57.9237 3.16906 64.1317 1.93263 70.3139C0.709839 76.4278 2.21125 83.2783 3.07639 89.3343C3.8796 94.9567 5.2521 101.069 7.63028 106.258C8.85226 108.924 9.93768 111.723 11.2734 114.328C12.4027 116.53 14.2393 118.374 15.6367 120.407C16.7084 121.965 18.0517 123.329 19.1527 124.876C20.9781 127.44 23.0918 129.225 25.1892 131.484C26.7795 133.197 29.19 134.529 31.1834 135.763C33.335 137.095 35.4195 138.932 37.7919 139.851C48.763 144.098 59.9982 145.898 71.5965 147.582C76.799 148.337 81.9845 147.497 87.1433 147.497C91.2046 147.497 95.1032 145.076 98.8775 143.769C101.258 142.945 103.546 141.58 105.91 140.634C107.9 139.838 110.19 139.403 112.094 138.537C116.609 136.486 121.351 134.264 125.078 130.891C129.129 127.227 133.382 123.376 136.643 119.136C137.977 117.401 138.906 115.342 139.841 113.396C141.298 110.365 143.224 107.718 144.141 104.457C146.615 95.6623 148.525 87.2957 148.525 78.0237C148.525 69.7121 146.819 61.9777 144.628 54.0893C143.613 50.4349 141.142 47.391 139.841 43.8801C139.285 42.377 138.101 41.2135 137.469 39.7922C137.162 39.1008 136.823 38.6225 136.685 37.8648C136.498 36.8356 135.377 36.3839 135.182 35.4078C134.576 32.3822 129.924 30.2147 128.404 27.7827C127.499 26.3353 126.028 25.1078 125.269 23.5889Z" fill="#EDEBFE" style="fill:#EDEBFE;fill:color(display-p3 0.9294 0.9216 0.9961);fill-opacity:1;"/>
<path fill-rule="evenodd" clip-rule="evenodd" d="M70.6901 0.000709629C71.1409 0.00106364 71.5914 0.0014173 72.0413 0.0014173C75.8614 0.0014173 79.5732 0.773241 83.1392 1.51475C84.5098 1.79975 85.8588 2.08026 87.1841 2.31076C89.9719 2.79558 92.6693 4.02027 95.0028 5.0924C96.0245 5.56185 97.0626 5.97865 98.1411 6.41163C98.5856 6.59012 99.037 6.77135 99.4969 6.96016C101.039 7.59328 102.628 8.29334 104.126 9.19224C106.25 10.4662 108.375 11.6446 110.555 12.8527C110.91 13.0496 111.266 13.2472 111.624 13.4462C112.839 14.1209 114.082 14.7298 115.354 15.344C115.486 15.4082 115.62 15.4725 115.753 15.5369C116.887 16.084 118.044 16.6424 119.176 17.2434C121.715 18.5927 124.221 20.2057 126.368 22.6056L126.499 22.7527L126.588 22.9293C126.879 23.5117 127.327 24.0772 127.906 24.7579C127.971 24.8347 128.038 24.9135 128.107 24.9942C128.608 25.5799 129.193 26.264 129.654 27.0011C129.921 27.4289 130.371 27.9088 131.004 28.4777C131.398 28.8313 131.796 29.163 132.221 29.517C132.499 29.7486 132.788 29.9897 133.095 30.2528C133.825 30.8779 134.592 31.5772 135.223 32.3486C135.853 33.1202 136.412 34.0404 136.627 35.1185C136.626 35.1092 136.626 35.1348 136.685 35.2192C136.755 35.3213 136.85 35.4273 137.031 35.6283C137.044 35.6422 137.057 35.6567 137.07 35.6719C137.378 36.0115 137.965 36.6578 138.136 37.6009C138.175 37.8133 138.241 37.9969 138.35 38.2299C138.399 38.3361 138.452 38.4401 138.516 38.5691C138.529 38.5935 138.541 38.6189 138.555 38.6453C138.634 38.8029 138.725 38.9877 138.816 39.1933C139.05 39.7193 139.383 40.2104 139.811 40.8409C139.842 40.8861 139.873 40.932 139.904 40.9786C140.346 41.6307 140.877 42.4302 141.224 43.3679C141.76 44.8148 142.511 46.1788 143.325 47.6588C143.428 47.8447 143.531 48.0325 143.635 48.2225C144.543 49.8804 145.491 51.687 146.049 53.6946C148.252 61.6246 150 69.5115 150 78.0236C150 87.501 148.045 96.0236 145.56 104.857C145.058 106.642 144.288 108.23 143.493 109.711C143.215 110.228 142.94 110.721 142.671 111.204C142.146 112.148 141.641 113.055 141.17 114.035C141.079 114.225 140.986 114.419 140.892 114.616C140.057 116.367 139.116 118.34 137.812 120.035C134.462 124.39 130.115 128.322 126.092 131.962L126.068 131.985C122.145 135.534 117.194 137.839 112.705 139.88C111.649 140.359 110.511 140.71 109.457 141.025C109.357 141.054 109.257 141.084 109.159 141.113C108.187 141.403 107.291 141.67 106.457 142.003C105.474 142.396 104.504 142.866 103.48 143.363C103.335 143.433 103.188 143.504 103.041 143.575C101.876 144.138 100.64 144.719 99.3598 145.162C98.4695 145.471 97.5594 145.849 96.603 146.258C96.4215 146.336 96.2379 146.415 96.0525 146.495C95.2757 146.829 94.4681 147.176 93.6578 147.495C91.6519 148.284 89.4544 148.971 87.1433 148.971C85.4085 148.971 83.6971 149.067 81.9363 149.166C81.1212 149.212 80.2955 149.258 79.452 149.296C76.8328 149.412 74.1253 149.439 71.3847 149.041C59.7911 147.358 48.404 145.54 37.2596 141.226C35.912 140.704 34.6854 139.937 33.5744 139.18C33.1634 138.9 32.7782 138.629 32.406 138.367C31.7228 137.885 31.0832 137.435 30.4073 137.016C30.1316 136.846 29.839 136.668 29.5349 136.484C27.7697 135.415 25.6141 134.109 24.1087 132.488C23.5223 131.856 22.9021 131.233 22.27 130.598C20.8049 129.127 19.2754 127.591 17.9515 125.731C17.4607 125.041 16.9143 124.386 16.3256 123.679L16.2508 123.59C15.6471 122.865 15.0013 122.085 14.4216 121.242C13.9326 120.531 13.397 119.857 12.8238 119.137C12.6183 118.878 12.408 118.614 12.1933 118.339C11.4067 117.334 10.5929 116.232 9.96135 115.001C9.09819 113.317 8.31265 111.499 7.5533 109.741C7.12693 108.754 6.70882 107.786 6.28986 106.872C3.82777 101.5 2.42927 95.2307 1.61671 89.5428C1.48127 88.5947 1.32654 87.6116 1.16769 86.6024C0.343068 81.3633 -0.592354 75.4202 0.486755 70.0246C0.850719 68.2048 1.18686 66.3591 1.52548 64.4998C2.31635 60.1572 3.1207 55.7406 4.32447 51.4071L4.35035 51.3139C5.61989 46.7435 6.78931 42.5335 8.78221 38.0495C9.54867 36.325 10.4708 34.7135 11.3945 33.1696C11.6347 32.768 11.8737 32.3732 12.1103 31.9821C12.797 30.8476 13.4644 29.7448 14.088 28.6015C22.5967 13.0023 38.8358 1.80168 56.7794 0.366188C61.4387 -0.00655484 66.0857 -0.00290585 70.6901 0.000709629ZM7.17948 52.1475L7.16593 52.1963C5.99929 56.3962 5.2345 60.5975 4.45527 64.8782C4.11112 66.7687 3.76416 68.6748 3.37852 70.603C2.41286 75.4313 3.24155 80.7419 4.06067 85.9911C4.22432 87.0399 4.3876 88.0862 4.5361 89.1257C5.32994 94.6825 6.67644 100.638 8.97072 105.643C9.44995 106.689 9.89175 107.713 10.3265 108.722C11.052 110.404 11.7579 112.041 12.5855 113.655C13.0833 114.626 13.7524 115.547 14.5158 116.522C14.6971 116.754 14.8863 116.992 15.0795 117.234C15.6707 117.978 16.2992 118.768 16.8517 119.571C17.3437 120.287 17.9055 120.968 18.5166 121.702L18.6128 121.817C19.1835 122.502 19.7959 123.237 20.3539 124.021C21.5347 125.679 22.7856 126.933 24.1624 128.313C24.8329 128.986 25.5332 129.688 26.2698 130.481C27.4684 131.772 29.2023 132.827 30.9872 133.914C31.3106 134.111 31.6357 134.308 31.9595 134.509C32.7051 134.97 33.4747 135.512 34.2056 136.026C34.5604 136.276 34.906 136.519 35.2354 136.743C36.2976 137.467 37.2995 138.079 38.3242 138.476C49.122 142.655 60.2052 144.438 71.8084 146.122C74.2702 146.48 76.7567 146.464 79.3206 146.349C80.091 146.315 80.877 146.271 81.6721 146.227C83.475 146.126 85.3244 146.022 87.1433 146.022C88.8935 146.022 90.676 145.499 92.5783 144.751C93.341 144.451 94.095 144.126 94.8682 143.794C95.0584 143.712 95.2497 143.63 95.4427 143.547C96.4058 143.135 97.3983 142.721 98.3952 142.376C99.4957 141.995 100.594 141.482 101.759 140.919C101.901 140.851 102.044 140.782 102.188 140.712C103.203 140.219 104.275 139.7 105.362 139.265C106.329 138.878 107.357 138.573 108.306 138.29C108.409 138.26 108.511 138.229 108.612 138.199C109.677 137.881 110.635 137.581 111.484 137.195C116.023 135.132 120.557 132.994 124.089 129.798C128.16 126.115 132.308 122.352 135.474 118.237C136.577 116.804 137.382 115.12 138.24 113.326C138.33 113.138 138.421 112.948 138.512 112.757C139.02 111.701 139.6 110.658 140.151 109.668C140.409 109.204 140.66 108.751 140.895 108.315C141.656 106.899 142.307 105.534 142.722 104.058C145.185 95.3008 147.051 87.0902 147.051 78.0236C147.051 69.9126 145.387 62.3305 143.207 54.4839C142.75 52.8371 141.955 51.2944 141.048 49.6391C140.948 49.4551 140.845 49.2694 140.742 49.0817C139.939 47.6259 139.076 46.0595 138.459 44.3922C138.249 43.8268 137.91 43.2929 137.462 42.6322C137.425 42.5765 137.386 42.5196 137.346 42.4615C136.949 41.8775 136.468 41.171 136.122 40.391C136.059 40.2509 135.993 40.1166 135.918 39.9663C135.847 39.8244 135.759 39.651 135.677 39.4766C135.506 39.1082 135.334 38.6738 135.235 38.1285C135.227 38.0844 135.204 38.0053 134.842 37.6043C134.824 37.5846 134.805 37.5633 134.784 37.5404C134.491 37.2198 133.914 36.5894 133.736 35.6969C133.649 35.2622 133.399 34.7769 132.939 34.2151C132.48 33.6531 131.875 33.0913 131.176 32.4923C130.937 32.2872 130.674 32.0681 130.405 31.8432C129.941 31.4557 129.456 31.0511 129.033 30.6714C128.348 30.0553 127.646 29.3523 127.153 28.5641C126.818 28.0269 126.387 27.522 125.869 26.9153C125.801 26.8345 125.73 26.7519 125.658 26.6672C125.124 26.0383 124.508 25.2938 124.048 24.4371C122.255 22.4762 120.133 21.0916 117.792 19.8477C116.714 19.2752 115.61 18.7425 114.469 18.1919C114.337 18.128 114.204 18.0639 114.071 17.9994C112.798 17.3847 111.488 16.7438 110.192 16.0241C109.838 15.8275 109.484 15.6313 109.13 15.4352C106.954 14.2284 104.779 13.023 102.609 11.721C101.308 10.94 99.8855 10.3075 98.377 9.68826C97.9641 9.51877 97.5403 9.3486 97.1108 9.17613C96.0057 8.73241 94.8629 8.27353 93.7715 7.77212C91.3881 6.67704 89.0298 5.62504 86.6789 5.21618C85.1443 4.9493 83.6754 4.64362 82.2403 4.34498C78.792 3.62737 75.5392 2.95045 72.0413 2.95045C71.5938 2.95045 71.1473 2.95012 70.7017 2.9498C66.0772 2.94641 61.5487 2.9431 57.0146 3.30583C40.1249 4.657 24.7396 15.2323 16.677 30.0137C16.0187 31.2204 15.302 32.4045 14.6062 33.5542C14.376 33.9345 14.148 34.3111 13.9252 34.6836C13.0156 36.204 12.1686 37.6913 11.4771 39.2472C9.57904 43.5178 8.46024 47.5367 7.17948 52.1475Z" fill="#7E3AF2" style="fill:#7E3AF2;fill:color(display-p3 0.4941 0.2275 0.9490);fill-opacity:1;"/>
<path fill-rule="evenodd" clip-rule="evenodd" d="M67.2862 53.9503C68.3011 54.4786 68.9188 55.2564 69.2397 56.1742C69.5362 57.0219 69.5552 57.9337 69.5552 58.6642C69.5552 58.8305 69.558 59.0449 69.5609 59.2597C69.5643 59.5163 69.5678 59.7733 69.5663 59.9492C69.563 60.3543 69.5416 60.8038 69.4362 61.2609C69.1995 62.2884 68.6097 63.0648 67.6515 63.8101C67.4437 63.9717 67.2018 64.1921 66.8989 64.4772C66.8441 64.5287 66.7873 64.5825 66.7287 64.6378C66.4817 64.8714 66.2043 65.1336 65.9236 65.3814C65.2709 65.9577 64.3386 66.7039 63.2536 66.945L63.2137 66.9539C62.751 67.0568 61.9295 67.2394 61.1026 67.3479C60.677 67.4038 60.214 67.445 59.7734 67.4395C59.3685 67.4344 58.832 67.3903 58.3423 67.1754C58.3408 67.1755 58.296 67.1614 58.1728 67.1414C58.0995 67.1295 58.0213 67.1188 57.919 67.1048L57.9173 67.1046C57.8214 67.0915 57.7026 67.0752 57.5824 67.0553C57.3561 67.0176 57.0199 66.9514 56.6869 66.8007C56.3336 66.6407 55.9095 66.3513 55.6363 65.8354C54.9968 64.6275 54.7525 63.121 54.7878 61.8839C54.8331 60.2975 55.1958 57.8646 56.1252 56.2381C57.2362 54.2939 59.3282 53.2624 61.3482 52.9271C63.347 52.5952 65.5816 52.8875 67.2862 53.9503ZM61.8312 55.8363C60.3565 56.0811 59.2143 56.7762 58.6857 57.7013C58.1127 58.704 57.7758 60.5609 57.7356 61.9681C57.7146 62.7056 57.8479 63.5233 58.1023 64.152C58.1644 64.1618 58.2327 64.1713 58.3167 64.1827L58.3328 64.1849C58.4234 64.1973 58.5343 64.2125 58.6449 64.2304C58.8598 64.2652 59.1853 64.3265 59.5089 64.4669C59.5088 64.4668 59.5088 64.4668 59.5088 64.4667C59.5093 64.465 59.5945 64.488 59.8104 64.4907C60.0572 64.4938 60.3677 64.47 60.719 64.4239C61.4148 64.3327 62.1301 64.1737 62.6 64.0693L62.6138 64.0662C62.8919 64.0044 63.3279 63.7393 63.9717 63.1708C64.2111 62.9595 64.4423 62.7409 64.6862 62.5104C64.7491 62.451 64.8128 62.3908 64.8777 62.3297C65.1776 62.0475 65.5108 61.7391 65.841 61.4823C66.4453 61.0123 66.5227 60.7715 66.5625 60.5987C66.5955 60.4557 66.6147 60.2594 66.6174 59.9251C66.6191 59.7166 66.6163 59.5534 66.613 59.366C66.6098 59.1791 66.6061 58.9681 66.6061 58.6642C66.6061 57.9213 66.5689 57.4706 66.456 57.1476C66.3749 56.9158 66.2514 56.7293 65.8962 56.5517L65.8265 56.5168L65.7608 56.4748C64.7914 55.8544 63.3019 55.5921 61.8312 55.8363Z" fill="#7E3AF2" style="fill:#7E3AF2;fill:color(display-p3 0.4941 0.2275 0.9490);fill-opacity:1;"/>
<path fill-rule="evenodd" clip-rule="evenodd" d="M93.1379 53.3809C91.9358 52.9512 90.7946 52.8206 89.7417 53.0333C88.5935 53.2653 87.6837 53.8793 87.0093 54.694C85.7189 56.253 85.2875 58.5299 85.2875 60.5707C85.2875 62.7064 86.4325 64.3303 87.8319 65.4499C88.0813 65.6494 88.3633 65.7743 88.5543 65.8499C88.771 65.9357 89.0086 66.0103 89.2439 66.0749C89.7161 66.2045 90.2643 66.3171 90.7954 66.4053C91.3284 66.4938 91.8731 66.5626 92.3438 66.5989C92.7408 66.6296 93.292 66.6572 93.7115 66.5639C93.7487 66.5557 93.7865 66.5473 93.8248 66.5388C94.8451 66.3128 96.2481 66.0019 97.3865 65.301C98.008 64.9184 98.5973 64.3956 99.0253 63.6699C99.4563 62.939 99.6742 62.0858 99.6742 61.1214C99.6742 60.9601 99.6773 60.7846 99.6806 60.5989C99.694 59.8407 99.7104 58.9143 99.5303 58.1053C99.2637 56.9078 98.5863 55.8677 97.2368 55.0966C96.6262 54.7477 96.0336 54.4825 95.4863 54.2455C95.3945 54.2058 95.3044 54.167 95.2157 54.1288C94.7609 53.9329 94.3415 53.7523 93.9028 53.533C93.6571 53.4101 93.3934 53.3623 93.1379 53.3809ZM92.9032 56.3261C93.3112 56.5199 93.7056 56.6896 94.0672 56.8451C94.1514 56.8814 94.2339 56.9168 94.3143 56.9517C94.8446 57.1813 95.3122 57.3934 95.7737 57.6571C96.3937 58.0114 96.5635 58.3497 96.6518 58.7462C96.7488 59.1819 96.7422 59.6362 96.7324 60.3188C96.729 60.5558 96.7252 60.8204 96.7252 61.1214C96.7252 61.6292 96.6148 61.9518 96.485 62.1719C96.3522 62.3971 96.1484 62.6001 95.8405 62.7897C95.1628 63.2069 94.2247 63.4289 93.0718 63.6851C93.1001 63.6789 93.0965 63.6789 93.0535 63.6789C92.9891 63.679 92.8367 63.6792 92.5708 63.6586C92.2006 63.63 91.7425 63.5731 91.2785 63.4961C90.8125 63.4187 90.3696 63.3258 90.0246 63.2311C89.8513 63.1835 89.7236 63.1411 89.6397 63.1079C89.629 63.1037 89.6197 63.0999 89.6119 63.0966C88.7088 62.3542 88.2366 61.5175 88.2366 60.5707C88.2366 58.8075 88.6327 57.3577 89.281 56.5745C89.576 56.2181 89.9134 56.0073 90.3257 55.9239C90.7575 55.8367 91.4012 55.8645 92.3261 56.2254C92.5159 56.2995 92.7117 56.3316 92.9032 56.3261ZM89.576 63.0802C89.5761 63.0802 89.5773 63.0808 89.5796 63.0821C89.5771 63.0809 89.576 63.0802 89.576 63.0802Z" fill="#7E3AF2" style="fill:#7E3AF2;fill:color(display-p3 0.4941 0.2275 0.9490);fill-opacity:1;"/>
<path fill-rule="evenodd" clip-rule="evenodd" d="M40.0232 128.707C40.7701 128.442 41.4436 128.152 41.6982 128.01C42.5153 127.556 43.572 127.26 44.4888 127.045C45.0139 126.921 45.6424 126.794 46.1816 126.685C46.5236 126.615 46.8297 126.553 47.0508 126.504C47.5581 126.391 48.0571 126.186 48.6928 125.925C48.8737 125.85 49.0657 125.771 49.2721 125.689C50.1103 125.353 51.176 124.965 52.3269 124.965C54.0726 124.965 56.6733 124.198 58.65 123.59C60.6091 122.987 63.2591 122.743 65.1329 122.679C66.3919 122.635 67.6711 122.479 69.0287 122.313C69.1475 122.299 69.2669 122.284 69.3869 122.27C70.8504 122.092 72.4004 121.915 73.9526 121.915C76.0148 121.915 78.0081 121.733 80.0946 121.542L80.1117 121.54C82.1861 121.35 84.3495 121.153 86.64 121.153C91.4589 121.153 96.0406 121.677 100.624 122.288C101.411 122.393 102.2 122.412 103.083 122.434C103.536 122.445 104.015 122.457 104.531 122.481C105.944 122.547 107.534 122.714 109.003 123.382C110.44 124.035 112.177 124.445 113.803 124.554C113.73 124.315 113.662 124.072 113.6 123.831C113.37 122.936 113.188 121.93 113.188 121.102C113.188 120.49 113.028 119.815 112.758 119.028C112.624 118.638 112.472 118.245 112.309 117.826L112.293 117.784C112.139 117.388 111.974 116.965 111.829 116.543C111.162 114.616 110.503 112.773 109.63 111.114C109.421 110.717 109.216 110.315 109.009 109.908C108.651 109.206 108.286 108.489 107.88 107.761C107.249 106.628 106.613 105.644 105.965 104.958C105.19 104.137 104.735 103.213 104.379 102.474C104.363 102.441 104.347 102.408 104.331 102.375C103.976 101.637 103.712 101.089 103.312 100.601C102.482 99.5863 101.827 98.0527 101.458 97.0362C101.381 96.8252 101.181 96.5588 100.73 96.0779C100.688 96.0324 100.642 95.9839 100.593 95.9324C100.223 95.5436 99.6972 94.9898 99.3516 94.3678C99.0411 93.8089 98.5442 93.2749 97.8843 92.6772C97.6848 92.4965 97.4498 92.2932 97.2013 92.0783C96.7276 91.6686 96.2048 91.2165 95.7853 90.7971C95.2631 90.2748 94.5266 89.5515 93.7687 88.9271C93.3902 88.6152 93.0283 88.3464 92.7039 88.1457C92.3632 87.9349 92.1435 87.8493 92.0389 87.8261C90.7417 87.5378 89.4646 87.0474 88.2882 86.5837C88.182 86.5418 88.0766 86.5002 87.972 86.4588C86.8815 86.0279 85.8736 85.6296 84.8686 85.3504C83.8201 85.0592 82.7154 84.9297 81.5016 84.8282C81.2441 84.8067 80.979 84.7863 80.7082 84.7655C79.7434 84.6913 78.707 84.6117 77.6892 84.4551C73.3132 83.7818 67.7162 84.4564 63.824 86.3001C61.4511 87.4241 59.576 88.3195 57.5907 89.7943L57.5407 89.8314C56.5889 90.5384 55.5205 91.3321 54.5344 92.1929C53.5209 93.0777 52.6793 93.962 52.166 94.8018C51.4939 95.9017 50.69 96.9314 49.9472 97.8827C49.8303 98.0324 49.7149 98.1801 49.6018 98.3259C48.7434 99.4325 47.989 100.457 47.4398 101.555C46.9563 102.522 46.4863 103.524 46.0045 104.551L46.0016 104.558C45.5216 105.581 45.0302 106.628 44.5168 107.655C42.749 111.191 40.8433 115.467 40.2709 119.187C40.271 119.187 40.2709 119.187 40.2707 119.189C40.2695 119.199 40.2637 119.247 40.2537 119.352C40.2432 119.462 40.2305 119.608 40.2159 119.788C40.1869 120.147 40.1517 120.625 40.1143 121.182C40.0396 122.296 39.9569 123.715 39.8976 125.109C39.8396 126.477 39.8052 127.796 39.8205 128.777C39.8873 128.755 39.955 128.731 40.0232 128.707ZM115.66 127.145C115.928 127.172 116.207 127.126 116.465 126.996C117.194 126.632 117.489 125.746 117.125 125.018C116.913 124.594 116.658 123.882 116.456 123.096C116.252 122.303 116.137 121.571 116.137 121.102C116.137 120.007 115.856 118.971 115.547 118.07C115.391 117.616 115.218 117.17 115.058 116.758L115.05 116.738C114.89 116.325 114.743 115.947 114.615 115.579C113.954 113.668 113.231 111.624 112.239 109.74C112.067 109.413 111.879 109.044 111.679 108.652C111.302 107.912 110.884 107.092 110.457 106.326C109.794 105.136 109.015 103.893 108.109 102.933C107.681 102.48 107.394 101.938 107.035 101.193C107.009 101.139 106.983 101.084 106.956 101.028C106.633 100.354 106.226 99.505 105.594 98.7334C105.1 98.1289 104.582 96.9988 104.229 96.0284C103.918 95.173 103.295 94.5019 102.882 94.0607C102.835 94.0114 102.791 93.9642 102.749 93.9189C102.33 93.4737 102.082 93.2093 101.929 92.9356C101.378 91.9422 100.586 91.1454 99.8642 90.4915C99.5447 90.2022 99.2581 89.9556 98.9911 89.7259C98.5878 89.3789 98.2293 89.0705 97.8706 88.7118C97.3417 88.1828 96.5197 87.3726 95.6439 86.651C95.2057 86.2899 94.7319 85.9326 94.2558 85.638C93.7959 85.3534 93.2503 85.0743 92.6787 84.9473C91.6368 84.7157 90.5596 84.3092 89.3697 83.8401C89.2609 83.7972 89.1509 83.7537 89.04 83.7098C87.9762 83.289 86.822 82.8323 85.6579 82.509C84.3299 82.1401 82.996 81.9938 81.7472 81.8894C81.4464 81.8643 81.1529 81.8416 80.8649 81.8194C79.92 81.7466 79.0337 81.6782 78.1377 81.5403C73.2466 80.7879 67.0448 81.5113 62.5615 83.635L62.5492 83.6408C60.2 84.7536 58.0776 85.7589 55.8321 87.427L55.752 87.4865C54.8187 88.1796 53.67 89.0328 52.595 89.9713C51.4992 90.9279 50.3948 92.0448 49.6497 93.2641C49.0726 94.2084 48.3841 95.0912 47.6348 96.052C47.5153 96.2052 47.3942 96.3605 47.2717 96.5183C46.4086 97.631 45.493 98.8543 44.8021 100.236C44.3018 101.237 43.8184 102.267 43.3421 103.283L43.3316 103.305C42.8491 104.334 42.3732 105.348 41.8791 106.336C40.1084 109.878 38.0055 114.518 37.3562 118.739C37.286 119.195 37.07 122.19 36.9513 124.984C36.8911 126.401 36.8533 127.823 36.8731 128.903C36.8829 129.433 36.9072 129.933 36.9604 130.321C36.9851 130.502 37.0274 130.749 37.1154 130.984C37.1573 131.096 37.2453 131.306 37.4198 131.512C37.6043 131.73 37.9989 132.066 38.6017 132.066C38.9982 132.066 39.4472 131.963 39.791 131.871C40.1763 131.768 40.6007 131.631 41.0086 131.486C41.799 131.206 42.6575 130.851 43.1304 130.588C43.562 130.348 44.2705 130.125 45.1633 129.915C45.7047 129.788 46.1711 129.695 46.6304 129.603C46.978 129.534 47.3216 129.465 47.6905 129.383C48.4727 129.209 49.2786 128.876 49.9405 128.602C50.0914 128.539 50.2349 128.48 50.3689 128.426C51.1838 128.1 51.79 127.914 52.3269 127.914C54.6095 127.914 57.6762 126.975 59.5173 126.409C61.0973 125.923 63.4344 125.688 65.2346 125.626C66.6289 125.578 68.0345 125.406 69.3674 125.243C69.493 125.228 69.6181 125.212 69.7424 125.197C71.2135 125.019 72.6004 124.864 73.9526 124.864C76.1502 124.864 78.2573 124.671 80.3048 124.484L80.3806 124.477C82.4701 124.285 84.5041 124.102 86.64 124.102C91.2538 124.102 95.6751 124.603 100.234 125.211C101.18 125.337 102.241 125.364 103.213 125.389C103.628 125.399 104.026 125.41 104.393 125.427C105.724 125.489 106.846 125.641 107.783 126.066C109.881 127.02 112.412 127.533 114.662 127.533C115.047 127.533 115.397 127.386 115.66 127.145Z" fill="#7E3AF2" style="fill:#7E3AF2;fill:color(display-p3 0.4941 0.2275 0.9490);fill-opacity:1;"/>
</svg>
