<svg width="150" height="150" viewBox="0 0 150 150" fill="none" xmlns="http://www.w3.org/2000/svg">
<path d="M125.269 23.5889C121.303 19.1564 115.928 17.5241 110.908 14.7353C108.364 13.3221 105.864 11.9544 103.368 10.4568C100.568 8.77689 97.3456 7.79168 94.3872 6.43242C92.0288 5.34882 89.5009 4.21047 86.9315 3.76363C81.9337 2.89444 77.1623 1.47609 72.0414 1.47609C66.9728 1.47609 61.9403 1.4327 56.897 1.83617C39.4804 3.2295 23.6681 14.1175 15.3825 29.3078C13.668 32.4511 11.5877 35.368 10.1297 38.6485C8.18097 43.0331 7.03631 47.1539 5.75878 51.753L5.74522 51.8019C4.04469 57.9237 3.16909 64.1318 1.93266 70.3139C0.70987 76.4279 2.21128 83.2783 3.07642 89.3344C3.87963 94.9568 5.25213 101.069 7.63031 106.258C8.85229 108.924 9.93771 111.723 11.2734 114.328C12.4028 116.53 14.2393 118.374 15.6367 120.407C16.7084 121.966 18.0517 123.329 19.1527 124.876C20.9781 127.44 23.0918 129.226 25.1893 131.484C26.7796 133.197 29.1901 134.529 31.1835 135.763C33.335 137.095 35.4196 138.932 37.7919 139.851C48.763 144.098 59.9982 145.898 71.5966 147.582C76.799 148.337 81.9845 147.497 87.1433 147.497C91.2047 147.497 95.1032 145.076 98.8775 143.769C101.258 142.945 103.546 141.58 105.91 140.634C107.9 139.838 110.19 139.403 112.094 138.538C116.609 136.486 121.351 134.264 125.078 130.891C129.129 127.227 133.382 123.376 136.643 119.136C137.977 117.401 138.906 115.342 139.841 113.396C141.298 110.365 143.224 107.718 144.141 104.458C146.615 95.6623 148.526 87.2957 148.526 78.0238C148.526 69.7122 146.819 61.9777 144.628 54.0894C143.613 50.4349 141.142 47.391 139.841 43.8802C139.285 42.3771 138.101 41.2136 137.469 39.7923C137.162 39.1009 136.823 38.6226 136.685 37.8648C136.498 36.8357 135.377 36.384 135.182 35.4079C134.576 32.3822 129.924 30.2148 128.404 27.7827C127.499 26.3354 126.028 25.1079 125.269 23.5889Z" fill="#D5F5F6" style="fill:#D5F5F6;fill:color(display-p3 0.8353 0.9608 0.9647);fill-opacity:1;"/>
<path fill-rule="evenodd" clip-rule="evenodd" d="M70.6901 0.000709629C71.1409 0.00106364 71.5914 0.0014173 72.0413 0.0014173C75.8614 0.0014173 79.5732 0.773241 83.1392 1.51475C84.5098 1.79975 85.8588 2.08026 87.1841 2.31076C89.9719 2.79558 92.6693 4.02027 95.0028 5.0924C96.0245 5.56185 97.0626 5.97865 98.1411 6.41163C98.5856 6.59012 99.037 6.77135 99.4969 6.96016C101.039 7.59328 102.628 8.29334 104.126 9.19224C106.25 10.4662 108.375 11.6446 110.555 12.8527C110.91 13.0496 111.266 13.2472 111.624 13.4462C112.839 14.1209 114.082 14.7298 115.354 15.344C115.486 15.4082 115.62 15.4725 115.753 15.5369C116.887 16.084 118.044 16.6424 119.176 17.2434C121.715 18.5927 124.221 20.2057 126.368 22.6056L126.499 22.7527L126.588 22.9293C126.879 23.5117 127.327 24.0772 127.906 24.7579C127.971 24.8347 128.038 24.9135 128.107 24.9942C128.608 25.5799 129.193 26.264 129.654 27.0011C129.921 27.4289 130.371 27.9088 131.004 28.4777C131.398 28.8313 131.796 29.163 132.221 29.517C132.499 29.7486 132.788 29.9897 133.095 30.2528C133.825 30.8779 134.592 31.5772 135.223 32.3486C135.853 33.1202 136.412 34.0404 136.627 35.1185C136.626 35.1092 136.626 35.1348 136.685 35.2192C136.755 35.3213 136.85 35.4273 137.031 35.6283C137.044 35.6422 137.057 35.6567 137.07 35.6719C137.378 36.0115 137.965 36.6578 138.136 37.6009C138.175 37.8133 138.241 37.9969 138.35 38.2299C138.399 38.3361 138.452 38.4401 138.516 38.5691C138.529 38.5935 138.541 38.6189 138.555 38.6453C138.634 38.8029 138.725 38.9877 138.816 39.1933C139.05 39.7193 139.383 40.2104 139.811 40.8409C139.842 40.8861 139.873 40.932 139.904 40.9786C140.346 41.6307 140.877 42.4301 141.224 43.3679C141.76 44.8147 142.511 46.1788 143.325 47.6588C143.428 47.8447 143.531 48.0325 143.635 48.2225C144.543 49.8804 145.491 51.687 146.049 53.6946C148.252 61.6246 150 69.5115 150 78.0236C150 87.501 148.045 96.0236 145.56 104.857C145.058 106.642 144.288 108.23 143.493 109.711C143.215 110.228 142.94 110.721 142.671 111.204C142.146 112.148 141.641 113.055 141.17 114.035C141.079 114.225 140.986 114.419 140.892 114.616C140.057 116.367 139.116 118.34 137.812 120.035C134.462 124.39 130.115 128.322 126.092 131.962L126.068 131.984C122.145 135.534 117.194 137.839 112.705 139.88C111.649 140.359 110.511 140.71 109.457 141.025C109.357 141.054 109.257 141.084 109.159 141.113C108.187 141.403 107.291 141.67 106.457 142.003C105.474 142.396 104.504 142.866 103.48 143.363C103.335 143.433 103.188 143.504 103.041 143.575C101.876 144.138 100.64 144.719 99.3598 145.162C98.4695 145.471 97.5594 145.849 96.603 146.258C96.4215 146.336 96.2379 146.415 96.0525 146.495C95.2757 146.829 94.4681 147.176 93.6578 147.495C91.6519 148.284 89.4544 148.971 87.1433 148.971C85.4085 148.971 83.6971 149.067 81.9363 149.166C81.1212 149.212 80.2955 149.258 79.452 149.296C76.8328 149.412 74.1253 149.439 71.3847 149.041C59.7911 147.358 48.404 145.54 37.2596 141.226C35.912 140.704 34.6854 139.937 33.5744 139.18C33.1634 138.9 32.7782 138.629 32.406 138.367C31.7228 137.885 31.0832 137.435 30.4073 137.016C30.1316 136.846 29.839 136.668 29.5349 136.484C27.7697 135.415 25.6141 134.109 24.1087 132.487C23.5223 131.856 22.9021 131.233 22.27 130.598C20.8049 129.127 19.2754 127.591 17.9515 125.731C17.4607 125.041 16.9143 124.386 16.3256 123.679L16.2508 123.59C15.6471 122.865 15.0013 122.085 14.4216 121.242C13.9326 120.531 13.397 119.857 12.8238 119.137C12.6183 118.878 12.408 118.614 12.1933 118.339C11.4067 117.334 10.5929 116.232 9.96135 115C9.09819 113.317 8.31265 111.499 7.5533 109.741C7.12693 108.754 6.70882 107.786 6.28986 106.872C3.82777 101.5 2.42927 95.2307 1.61671 89.5427C1.48127 88.5947 1.32654 87.6116 1.16769 86.6024C0.343068 81.3633 -0.592354 75.4202 0.486755 70.0246C0.850719 68.2048 1.18686 66.3591 1.52548 64.4998C2.31635 60.1572 3.1207 55.7406 4.32447 51.4071L4.35035 51.3139C5.61989 46.7435 6.78931 42.5335 8.78221 38.0495C9.54867 36.325 10.4708 34.7135 11.3945 33.1696C11.6347 32.768 11.8737 32.3732 12.1103 31.9821C12.797 30.8476 13.4644 29.7448 14.088 28.6015C22.5967 13.0023 38.8358 1.80168 56.7794 0.366188C61.4387 -0.00655484 66.0857 -0.00290585 70.6901 0.000709629ZM7.17948 52.1475L7.16593 52.1963C5.99929 56.3962 5.2345 60.5975 4.45527 64.8782C4.11112 66.7687 3.76416 68.6748 3.37852 70.603C2.41286 75.4313 3.24155 80.7419 4.06067 85.9911C4.22432 87.0398 4.3876 88.0862 4.5361 89.1257C5.32994 94.6825 6.67644 100.638 8.97072 105.643C9.44995 106.689 9.89175 107.713 10.3265 108.722C11.052 110.404 11.7579 112.041 12.5855 113.655C13.0833 114.626 13.7524 115.546 14.5158 116.522C14.6971 116.754 14.8863 116.992 15.0795 117.234C15.6707 117.978 16.2992 118.768 16.8517 119.571C17.3437 120.287 17.9055 120.968 18.5166 121.702L18.6128 121.817C19.1835 122.502 19.7959 123.237 20.3539 124.021C21.5347 125.679 22.7856 126.933 24.1624 128.313C24.8329 128.986 25.5332 129.688 26.2698 130.481C27.4684 131.772 29.2023 132.827 30.9872 133.914C31.3106 134.111 31.6357 134.308 31.9595 134.509C32.7051 134.97 33.4747 135.512 34.2056 136.026C34.5604 136.276 34.906 136.519 35.2354 136.743C36.2976 137.467 37.2995 138.079 38.3242 138.476C49.122 142.655 60.2052 144.438 71.8084 146.122C74.2702 146.48 76.7567 146.464 79.3206 146.349C80.091 146.315 80.877 146.271 81.6721 146.227C83.475 146.126 85.3244 146.022 87.1433 146.022C88.8935 146.022 90.676 145.499 92.5783 144.751C93.341 144.451 94.095 144.126 94.8682 143.794C95.0584 143.712 95.2497 143.63 95.4427 143.547C96.4058 143.135 97.3983 142.721 98.3952 142.376C99.4957 141.995 100.594 141.482 101.759 140.919C101.901 140.851 102.044 140.782 102.188 140.712C103.203 140.219 104.275 139.7 105.362 139.265C106.329 138.878 107.357 138.573 108.306 138.29C108.409 138.26 108.511 138.229 108.612 138.199C109.677 137.881 110.635 137.581 111.484 137.195C116.023 135.132 120.557 132.994 124.089 129.798C128.16 126.115 132.308 122.352 135.474 118.237C136.577 116.804 137.382 115.12 138.24 113.326C138.33 113.138 138.421 112.948 138.512 112.757C139.02 111.701 139.6 110.658 140.151 109.668C140.409 109.204 140.66 108.751 140.895 108.315C141.656 106.899 142.307 105.534 142.722 104.058C145.185 95.3008 147.051 87.0901 147.051 78.0236C147.051 69.9126 145.387 62.3305 143.207 54.4839C142.75 52.837 141.955 51.2944 141.048 49.6391C140.948 49.4551 140.845 49.2694 140.742 49.0817C139.939 47.6259 139.076 46.0595 138.459 44.3922C138.249 43.8268 137.91 43.2929 137.462 42.6322C137.425 42.5765 137.386 42.5196 137.346 42.4615C136.949 41.8775 136.468 41.171 136.122 40.391C136.059 40.2509 135.993 40.1166 135.918 39.9663C135.847 39.8244 135.759 39.651 135.677 39.4766C135.506 39.1082 135.334 38.6738 135.235 38.1285C135.227 38.0844 135.204 38.0053 134.842 37.6043C134.824 37.5846 134.805 37.5633 134.784 37.5404C134.491 37.2198 133.914 36.5894 133.736 35.6969C133.649 35.2622 133.399 34.7769 132.939 34.2151C132.48 33.6531 131.875 33.0913 131.176 32.4923C130.937 32.2872 130.674 32.0681 130.405 31.8432C129.941 31.4557 129.456 31.0511 129.033 30.6714C128.348 30.0553 127.646 29.3523 127.153 28.5641C126.818 28.0269 126.387 27.522 125.869 26.9153C125.801 26.8345 125.73 26.7519 125.658 26.6672C125.124 26.0383 124.508 25.2938 124.048 24.4371C122.255 22.4762 120.133 21.0916 117.792 19.8477C116.714 19.2752 115.61 18.7425 114.469 18.1919C114.337 18.128 114.204 18.0639 114.071 17.9994C112.798 17.3847 111.488 16.7438 110.192 16.0241C109.838 15.8275 109.484 15.6313 109.13 15.4352C106.954 14.2284 104.779 13.023 102.609 11.721C101.308 10.94 99.8855 10.3075 98.377 9.68826C97.9641 9.51877 97.5403 9.3486 97.1108 9.17613C96.0057 8.73241 94.8629 8.27353 93.7715 7.77212C91.3881 6.67704 89.0298 5.62504 86.6789 5.21618C85.1443 4.9493 83.6754 4.64362 82.2403 4.34498C78.792 3.62737 75.5392 2.95045 72.0413 2.95045C71.5938 2.95045 71.1473 2.95012 70.7017 2.9498C66.0772 2.94641 61.5487 2.9431 57.0146 3.30583C40.1249 4.657 24.7396 15.2323 16.677 30.0137C16.0187 31.2204 15.302 32.4045 14.6062 33.5542C14.376 33.9345 14.148 34.3111 13.9252 34.6836C13.0156 36.204 12.1686 37.6913 11.4771 39.2472C9.57904 43.5178 8.46024 47.5367 7.17948 52.1475Z" fill="#16BDCA" style="fill:#16BDCA;fill:color(display-p3 0.0863 0.7412 0.7922);fill-opacity:1;"/>
<path fill-rule="evenodd" clip-rule="evenodd" d="M67.2865 53.9507C68.3015 54.479 68.9192 55.2568 69.2401 56.1745C69.5365 57.0223 69.5555 57.934 69.5555 58.6645C69.5555 58.8308 69.5584 59.0453 69.5613 59.26C69.5647 59.5166 69.5682 59.7737 69.5667 59.9496C69.5634 60.3546 69.5419 60.8042 69.4366 61.2613C69.1998 62.2888 68.6101 63.0652 67.6519 63.8105C67.444 63.9721 67.2021 64.1925 66.8992 64.4775C66.8445 64.5291 66.7876 64.5828 66.7291 64.6382C66.482 64.8717 66.2047 65.134 65.924 65.3818C65.2713 65.9581 64.339 66.7042 63.2539 66.9454L63.214 66.9542C62.7514 67.0571 61.9298 67.2398 61.103 67.3483C60.6774 67.4041 60.2144 67.4454 59.7737 67.4399C59.3689 67.4348 58.8324 67.3907 58.3427 67.1758C58.3412 67.1759 58.2964 67.1617 58.1732 67.1418C58.0998 67.1299 58.0217 67.1192 57.9194 67.1052L57.9177 67.105C57.8218 67.0919 57.703 67.0756 57.5828 67.0556C57.3564 67.018 57.0202 66.9518 56.6872 66.801C56.334 66.6411 55.9098 66.3517 55.6367 65.8358C54.9972 64.6278 54.7528 63.1213 54.7882 61.8843C54.8335 60.2979 55.1962 57.865 56.1256 56.2385C57.2366 54.2943 59.3286 53.2628 61.3486 52.9274C63.3474 52.5956 65.5819 52.8878 67.2865 53.9507ZM61.8316 55.8366C60.3568 56.0815 59.2147 56.7766 58.6861 57.7016C58.1131 58.7044 57.7762 60.5613 57.736 61.9685C57.7149 62.706 57.8483 63.5236 58.1026 64.1524C58.1648 64.1622 58.2331 64.1716 58.3171 64.1831L58.3332 64.1853C58.4238 64.1977 58.5347 64.2128 58.6453 64.2308C58.8601 64.2656 59.1857 64.3269 59.5093 64.4673C59.5092 64.4672 59.5091 64.4671 59.5091 64.4671C59.5096 64.4654 59.5948 64.4883 59.8107 64.4911C60.0576 64.4942 60.368 64.4704 60.7194 64.4243C61.4152 64.333 62.1305 64.1741 62.6003 64.0696L62.6142 64.0666C62.8923 64.0048 63.3283 63.7396 63.9721 63.1712C64.2114 62.9598 64.4427 62.7413 64.6866 62.5108C64.7495 62.4513 64.8132 62.3911 64.8781 62.33C65.1779 62.0478 65.5112 61.7394 65.8414 61.4826C66.4456 61.0126 66.5231 60.7719 66.5629 60.5991C66.5958 60.4561 66.615 60.2597 66.6178 59.9254C66.6195 59.717 66.6167 59.5538 66.6134 59.3663C66.6102 59.1794 66.6065 58.9685 66.6065 58.6645C66.6065 57.9217 66.5693 57.4709 66.4563 57.1479C66.3753 56.9162 66.2518 56.7297 65.8966 56.5521L65.8268 56.5172L65.7611 56.4752C64.7918 55.8548 63.3022 55.5925 61.8316 55.8366Z" fill="#16BDCA" style="fill:#16BDCA;fill:color(display-p3 0.0863 0.7412 0.7922);fill-opacity:1;"/>
<path fill-rule="evenodd" clip-rule="evenodd" d="M93.1384 53.3812C91.9363 52.9515 90.7951 52.8209 89.7421 53.0336C88.5939 53.2656 87.6842 53.8796 87.0098 54.6943C85.7193 56.2533 85.288 58.5303 85.288 60.571C85.288 62.7067 86.433 64.3306 87.8324 65.4502C88.0818 65.6497 88.3638 65.7746 88.5548 65.8502C88.7715 65.9361 89.0091 66.0106 89.2444 66.0752C89.7166 66.2048 90.2648 66.3174 90.7959 66.4056C91.3288 66.4941 91.8736 66.5629 92.3443 66.5992C92.7413 66.6299 93.2925 66.6575 93.712 66.5643C93.7492 66.556 93.787 66.5476 93.8252 66.5391C94.8456 66.3131 96.2485 66.0022 97.387 65.3013C98.0085 64.9187 98.5978 64.3959 99.0257 63.6702C99.4567 62.9393 99.6747 62.0861 99.6747 61.1217C99.6747 60.9604 99.6778 60.7849 99.6811 60.5992C99.6945 59.841 99.7109 58.9146 99.5308 58.1057C99.2642 56.9081 98.5868 55.868 97.2373 55.0969C96.6267 54.748 96.034 54.4828 95.4868 54.2458C95.395 54.2061 95.3049 54.1673 95.2162 54.1291C94.7614 53.9332 94.342 53.7526 93.9033 53.5333C93.6575 53.4104 93.3939 53.3626 93.1384 53.3812ZM92.9037 56.3265C93.3117 56.5202 93.7061 56.6899 94.0677 56.8454C94.1519 56.8817 94.2344 56.9171 94.3148 56.952C94.8451 57.1816 95.3127 57.3937 95.7742 57.6574C96.3942 58.0117 96.564 58.35 96.6522 58.7465C96.7492 59.1822 96.7427 59.6365 96.7329 60.3191C96.7295 60.5561 96.7257 60.8207 96.7257 61.1217C96.7257 61.6295 96.6153 61.9521 96.4855 62.1722C96.3527 62.3974 96.1489 62.6005 95.841 62.79C95.1633 63.2072 94.2252 63.4292 93.0723 63.6854C93.1006 63.6792 93.097 63.6792 93.0539 63.6792C92.9896 63.6793 92.8372 63.6795 92.5713 63.6589C92.2011 63.6304 91.743 63.5734 91.279 63.4964C90.813 63.419 90.3701 63.3261 90.0251 63.2314C89.8518 63.1838 89.7241 63.1414 89.6402 63.1082C89.6294 63.104 89.6202 63.1002 89.6124 63.0969C88.7093 62.3545 88.2371 61.5178 88.2371 60.571C88.2371 58.8078 88.6332 57.358 89.2815 56.5748C89.5765 56.2185 89.9139 56.0076 90.3262 55.9242C90.758 55.837 91.4017 55.8648 92.3266 56.2258C92.5164 56.2998 92.7122 56.3319 92.9037 56.3265ZM89.5765 63.0805C89.5766 63.0805 89.5778 63.0811 89.5801 63.0824C89.5776 63.0812 89.5765 63.0805 89.5765 63.0805Z" fill="#16BDCA" style="fill:#16BDCA;fill:color(display-p3 0.0863 0.7412 0.7922);fill-opacity:1;"/>
<path fill-rule="evenodd" clip-rule="evenodd" d="M114.126 84.6107C113.379 84.8755 112.705 85.166 112.451 85.3075C111.634 85.7614 110.577 86.0577 109.66 86.273C109.135 86.3964 108.507 86.5238 107.967 86.633C107.625 86.7023 107.319 86.7644 107.098 86.8135C106.591 86.9262 106.092 87.1315 105.456 87.393C105.275 87.4674 105.083 87.5464 104.877 87.6291C104.039 87.965 102.973 88.3524 101.822 88.3524C100.076 88.3524 97.4757 89.1193 95.499 89.7275C93.5399 90.3303 90.8899 90.5745 89.0161 90.6391C87.757 90.6825 86.4779 90.8386 85.1203 91.0043C85.0015 91.0188 84.8821 91.0333 84.762 91.0479C83.2986 91.2256 81.7486 91.4025 80.1964 91.4025C78.1342 91.4025 76.1409 91.585 74.0544 91.776L74.0373 91.7776C71.9629 91.9675 69.7995 92.165 67.509 92.165C62.6901 92.165 58.1083 91.6405 53.5254 91.0295C52.7377 90.9244 51.949 90.9052 51.0663 90.8836C50.6125 90.8725 50.134 90.8609 49.6179 90.8366C48.2046 90.7702 46.6151 90.6037 45.1461 89.9359C43.7091 89.2827 41.9716 88.8726 40.3458 88.7632C40.4188 89.0026 40.4869 89.2455 40.5489 89.4866C40.7793 90.3819 40.9612 91.3881 40.9612 92.2155C40.9612 92.8281 41.1206 93.5024 41.3911 94.2899C41.5251 94.6801 41.6772 95.073 41.8398 95.4915L41.856 95.5333C42.0102 95.9301 42.1746 96.353 42.3204 96.7742C42.9874 98.7012 43.6462 100.545 44.5194 102.204C44.7283 102.601 44.933 103.003 45.1402 103.41C45.498 104.112 45.863 104.829 46.2687 105.557C46.8997 106.69 47.5359 107.674 48.1838 108.36C48.9591 109.18 49.4136 110.104 49.7702 110.844C49.7863 110.877 49.8022 110.91 49.8178 110.943C50.1734 111.68 50.4374 112.228 50.8371 112.717C51.6671 113.731 52.3218 115.265 52.6914 116.281C52.7681 116.492 52.9675 116.759 53.4185 117.24C53.4611 117.285 53.5073 117.334 53.5562 117.385C53.9257 117.774 54.4518 118.328 54.7974 118.95C55.1079 119.509 55.6048 120.043 56.2646 120.64C56.4642 120.821 56.6992 121.024 56.9477 121.239C57.4214 121.649 57.9442 122.101 58.3636 122.521C58.8859 123.043 59.6223 123.766 60.3802 124.391C60.7588 124.702 61.1207 124.971 61.4451 125.172C61.7857 125.383 62.0055 125.468 62.11 125.492C63.4073 125.78 64.6844 126.27 65.8608 126.734C65.967 126.776 66.0724 126.817 66.177 126.859C67.2675 127.29 68.2753 127.688 69.2804 127.967C70.3288 128.258 71.4336 128.388 72.6474 128.489C72.9049 128.511 73.17 128.531 73.4408 128.552C74.4056 128.626 75.442 128.706 76.4597 128.863C80.8358 129.536 86.4328 128.861 90.325 127.018C92.6979 125.894 94.573 124.998 96.5583 123.523L96.6083 123.486C97.5601 122.779 98.6285 121.986 99.6146 121.125C100.628 120.24 101.47 119.356 101.983 118.516C102.655 117.416 103.459 116.386 104.202 115.435C104.319 115.285 104.434 115.137 104.547 114.992C105.406 113.885 106.16 112.861 106.709 111.763C107.193 110.796 107.663 109.793 108.144 108.766L108.147 108.76C108.627 107.737 109.119 106.689 109.632 105.663C111.4 102.127 113.306 97.851 113.878 94.1306C113.878 94.131 113.878 94.1304 113.878 94.1286C113.879 94.1185 113.885 94.0706 113.895 93.9657C113.906 93.8557 113.918 93.7092 113.933 93.5295C113.962 93.1708 113.997 92.6927 114.035 92.1355C114.109 91.0212 114.192 89.6024 114.251 88.2082C114.309 86.8406 114.344 85.5213 114.329 84.5402C114.262 84.563 114.194 84.5865 114.126 84.6107ZM38.4895 86.173C38.2213 86.146 37.9425 86.1921 37.6835 86.3216C36.9551 86.6858 36.6599 87.5715 37.0241 88.2999C37.2359 88.7235 37.4906 89.4352 37.6929 90.2215C37.897 91.0149 38.0122 91.7467 38.0122 92.2155C38.0122 93.3106 38.2925 94.3468 38.602 95.2478C38.758 95.7019 38.931 96.1478 39.091 96.5596L39.0986 96.5793C39.2594 96.993 39.4062 97.3707 39.5336 97.7389C40.1949 99.6494 40.9185 101.694 41.9097 103.577C42.0819 103.904 42.2702 104.274 42.4701 104.666C42.8473 105.405 43.2654 106.225 43.6922 106.992C44.3546 108.181 45.1337 109.425 46.0398 110.384C46.4681 110.838 46.7548 111.38 47.114 112.125C47.1399 112.179 47.1663 112.234 47.1934 112.29C47.5162 112.963 47.9233 113.813 48.5547 114.584C49.0492 115.189 49.567 116.319 49.9199 117.289C50.231 118.145 50.8535 118.816 51.2673 119.257C51.3135 119.306 51.3579 119.353 51.4004 119.399C51.8189 119.844 52.0674 120.108 52.2195 120.382C52.7714 121.375 53.5629 122.172 54.2848 122.826C54.6042 123.115 54.8909 123.362 55.1579 123.592C55.5612 123.939 55.9196 124.247 56.2784 124.606C56.8073 125.135 57.6293 125.945 58.5051 126.667C58.9433 127.028 59.4171 127.385 59.8932 127.68C60.3531 127.964 60.8986 128.243 61.4703 128.37C62.5122 128.602 63.5894 129.008 64.7793 129.478C64.8881 129.52 64.9981 129.564 65.109 129.608C66.1728 130.029 67.327 130.485 68.4911 130.809C69.8191 131.178 71.153 131.324 72.4018 131.428C72.7026 131.453 72.9961 131.476 73.2841 131.498C74.2289 131.571 75.1152 131.639 76.0113 131.777C80.9024 132.53 87.1042 131.806 91.5875 129.683L91.5998 129.677C93.949 128.564 96.0714 127.559 98.3169 125.891L98.397 125.831C99.3302 125.138 100.479 124.285 101.554 123.346C102.65 122.39 103.754 121.273 104.499 120.054C105.076 119.109 105.765 118.226 106.514 117.266C106.634 117.112 106.755 116.957 106.877 116.799C107.74 115.687 108.656 114.463 109.347 113.081C109.847 112.081 110.331 111.05 110.807 110.035L110.817 110.012C111.3 108.984 111.776 107.97 112.27 106.981C114.041 103.44 116.143 98.7996 116.793 94.579C116.863 94.1226 117.079 91.1278 117.198 88.3333C117.258 86.917 117.296 85.4949 117.276 84.4151C117.266 83.8845 117.242 83.385 117.189 82.9964C117.164 82.816 117.122 82.5688 117.034 82.3332C116.992 82.2211 116.904 82.0115 116.729 81.8053C116.545 81.5873 116.15 81.252 115.547 81.252C115.151 81.252 114.702 81.3551 114.358 81.4468C113.973 81.5496 113.548 81.6866 113.14 81.8312C112.35 82.1114 111.491 82.4669 111.019 82.7295C110.587 82.9693 109.878 83.1924 108.986 83.4022C108.444 83.5294 107.978 83.6227 107.519 83.7145C107.171 83.784 106.827 83.8527 106.458 83.9347C105.676 84.1085 104.87 84.4421 104.208 84.7161C104.058 84.7786 103.914 84.8379 103.78 84.8916C102.965 85.2181 102.359 85.4034 101.822 85.4034C99.5395 85.4034 96.4728 86.3424 94.6317 86.9089C93.0517 87.3951 90.7146 87.6297 88.9144 87.6918C87.5201 87.7399 86.1145 87.9117 84.7816 88.0746C84.6559 88.09 84.5309 88.1053 84.4066 88.1204C82.9355 88.299 81.5486 88.4535 80.1964 88.4535C77.9988 88.4535 75.8916 88.6464 73.8441 88.8339L73.7684 88.8408C71.6788 89.0322 69.6448 89.216 67.509 89.216C62.8952 89.216 58.4739 88.7141 53.9151 88.1063C52.9693 87.9802 51.9081 87.9533 50.9361 87.9287C50.5214 87.9182 50.1228 87.908 49.7564 87.8908C48.4247 87.8282 47.3032 87.677 46.3664 87.2512C44.2675 86.2972 41.7371 85.7847 39.4867 85.7847C39.1022 85.7847 38.752 85.9319 38.4895 86.173Z" fill="#16BDCA" style="fill:#16BDCA;fill:color(display-p3 0.0863 0.7412 0.7922);fill-opacity:1;"/>
</svg>
