<svg width="150" height="150" viewBox="0 0 150 150" fill="none" xmlns="http://www.w3.org/2000/svg">
<path d="M125.269 23.5889C121.303 19.1564 115.928 17.524 110.908 14.7353C108.364 13.322 105.864 11.9543 103.368 10.4567C100.568 8.77683 97.3456 7.79162 94.3872 6.43235C92.0287 5.34875 89.5008 4.21041 86.9315 3.76356C81.9337 2.89438 77.1622 1.47603 72.0413 1.47603C66.9728 1.47603 61.9403 1.43264 56.897 1.8361C39.4803 3.22944 23.6681 14.1174 15.3825 29.3077C13.6679 32.451 11.5876 35.368 10.1296 38.6485C8.18094 43.033 7.03628 47.1538 5.75875 51.753L5.74518 51.8018C4.04466 57.9237 3.16906 64.1317 1.93263 70.3139C0.709839 76.4278 2.21125 83.2783 3.07639 89.3343C3.8796 94.9567 5.2521 101.069 7.63028 106.258C8.85226 108.924 9.93768 111.723 11.2734 114.328C12.4027 116.53 14.2393 118.374 15.6367 120.407C16.7084 121.965 18.0517 123.329 19.1527 124.876C20.9781 127.44 23.0918 129.225 25.1892 131.484C26.7795 133.197 29.19 134.529 31.1834 135.763C33.335 137.095 35.4195 138.932 37.7919 139.851C48.763 144.098 59.9982 145.898 71.5965 147.582C76.799 148.337 81.9845 147.497 87.1433 147.497C91.2046 147.497 95.1032 145.076 98.8775 143.769C101.258 142.945 103.546 141.58 105.91 140.634C107.9 139.838 110.19 139.403 112.094 138.537C116.609 136.486 121.351 134.264 125.078 130.891C129.129 127.227 133.382 123.376 136.643 119.136C137.977 117.401 138.906 115.342 139.841 113.396C141.298 110.365 143.224 107.718 144.141 104.457C146.615 95.6623 148.525 87.2957 148.525 78.0237C148.525 69.7121 146.819 61.9777 144.628 54.0893C143.613 50.4349 141.142 47.391 139.841 43.8801C139.285 42.377 138.101 41.2135 137.469 39.7922C137.162 39.1008 136.823 38.6225 136.685 37.8648C136.498 36.8356 135.377 36.3839 135.182 35.4078C134.576 32.3822 129.924 30.2147 128.404 27.7827C127.499 26.3353 126.028 25.1078 125.269 23.5889Z" fill="#E1EFFE" style="fill:#E1EFFE;fill:color(display-p3 0.8824 0.9373 0.9961);fill-opacity:1;"/>
<path fill-rule="evenodd" clip-rule="evenodd" d="M70.6901 0.000709629C71.1409 0.00106364 71.5914 0.0014173 72.0413 0.0014173C75.8614 0.0014173 79.5732 0.773241 83.1392 1.51475C84.5098 1.79975 85.8588 2.08026 87.1841 2.31076C89.9719 2.79558 92.6693 4.02027 95.0028 5.0924C96.0245 5.56185 97.0626 5.97865 98.1411 6.41163C98.5856 6.59012 99.037 6.77135 99.4969 6.96016C101.039 7.59328 102.628 8.29334 104.126 9.19224C106.25 10.4662 108.375 11.6446 110.555 12.8527C110.91 13.0496 111.266 13.2472 111.624 13.4462C112.839 14.1209 114.082 14.7298 115.354 15.344C115.486 15.4082 115.62 15.4725 115.753 15.5369C116.887 16.084 118.044 16.6424 119.176 17.2434C121.715 18.5927 124.221 20.2057 126.368 22.6056L126.499 22.7527L126.588 22.9293C126.879 23.5117 127.327 24.0772 127.906 24.7579C127.971 24.8347 128.038 24.9135 128.107 24.9942C128.608 25.5799 129.193 26.264 129.654 27.0011C129.921 27.4289 130.371 27.9088 131.004 28.4777C131.398 28.8313 131.796 29.163 132.221 29.517C132.499 29.7486 132.788 29.9897 133.095 30.2528C133.825 30.8779 134.592 31.5772 135.223 32.3486C135.853 33.1202 136.412 34.0404 136.627 35.1185C136.626 35.1092 136.626 35.1348 136.685 35.2192C136.755 35.3213 136.85 35.4273 137.031 35.6283C137.044 35.6422 137.057 35.6567 137.07 35.6719C137.378 36.0115 137.965 36.6578 138.136 37.6009C138.175 37.8133 138.241 37.9969 138.35 38.2299C138.399 38.3361 138.452 38.4401 138.516 38.5691C138.529 38.5935 138.541 38.6189 138.555 38.6453C138.634 38.8029 138.725 38.9877 138.816 39.1933C139.05 39.7193 139.383 40.2104 139.811 40.8409C139.842 40.8861 139.873 40.932 139.904 40.9786C140.346 41.6307 140.877 42.4302 141.224 43.3679C141.76 44.8148 142.511 46.1788 143.325 47.6588C143.428 47.8447 143.531 48.0325 143.635 48.2225C144.543 49.8804 145.491 51.687 146.049 53.6946C148.252 61.6246 150 69.5115 150 78.0236C150 87.501 148.045 96.0236 145.56 104.857C145.058 106.642 144.288 108.23 143.493 109.711C143.215 110.228 142.94 110.721 142.671 111.204C142.146 112.148 141.641 113.055 141.17 114.035C141.079 114.225 140.986 114.419 140.892 114.616C140.057 116.367 139.116 118.34 137.812 120.035C134.462 124.39 130.115 128.322 126.092 131.962L126.068 131.985C122.145 135.534 117.194 137.839 112.705 139.88C111.649 140.359 110.511 140.71 109.457 141.025C109.357 141.054 109.257 141.084 109.159 141.113C108.187 141.403 107.291 141.67 106.457 142.003C105.474 142.396 104.504 142.866 103.48 143.363C103.335 143.433 103.188 143.504 103.041 143.575C101.876 144.138 100.64 144.719 99.3598 145.162C98.4695 145.471 97.5594 145.849 96.603 146.258C96.4215 146.336 96.2379 146.415 96.0525 146.495C95.2757 146.829 94.4681 147.176 93.6578 147.495C91.6519 148.284 89.4544 148.971 87.1433 148.971C85.4085 148.971 83.6971 149.067 81.9363 149.166C81.1212 149.212 80.2955 149.258 79.452 149.296C76.8328 149.412 74.1253 149.439 71.3847 149.041C59.7911 147.358 48.404 145.54 37.2596 141.226C35.912 140.704 34.6854 139.937 33.5744 139.18C33.1634 138.9 32.7782 138.629 32.406 138.367C31.7228 137.885 31.0832 137.435 30.4073 137.016C30.1316 136.846 29.839 136.668 29.5349 136.484C27.7697 135.415 25.6141 134.109 24.1087 132.488C23.5223 131.856 22.9021 131.233 22.27 130.598C20.8049 129.127 19.2754 127.591 17.9515 125.731C17.4607 125.041 16.9143 124.386 16.3256 123.679L16.2508 123.59C15.6471 122.865 15.0013 122.085 14.4216 121.242C13.9326 120.531 13.397 119.857 12.8238 119.137C12.6183 118.878 12.408 118.614 12.1933 118.339C11.4067 117.334 10.5929 116.232 9.96135 115.001C9.09819 113.317 8.31265 111.499 7.5533 109.741C7.12693 108.754 6.70882 107.786 6.28986 106.872C3.82777 101.5 2.42927 95.2307 1.61671 89.5428C1.48127 88.5947 1.32654 87.6116 1.16769 86.6024C0.343068 81.3633 -0.592354 75.4202 0.486755 70.0246C0.850719 68.2048 1.18686 66.3591 1.52548 64.4998C2.31635 60.1572 3.1207 55.7406 4.32447 51.4071L4.35035 51.3139C5.61989 46.7435 6.78931 42.5335 8.78221 38.0495C9.54867 36.325 10.4708 34.7135 11.3945 33.1696C11.6347 32.768 11.8737 32.3732 12.1103 31.9821C12.797 30.8476 13.4644 29.7448 14.088 28.6015C22.5967 13.0023 38.8358 1.80168 56.7794 0.366188C61.4387 -0.00655484 66.0857 -0.00290585 70.6901 0.000709629ZM7.17948 52.1475L7.16593 52.1963C5.99929 56.3962 5.2345 60.5975 4.45527 64.8782C4.11112 66.7687 3.76416 68.6748 3.37852 70.603C2.41286 75.4313 3.24155 80.7419 4.06067 85.9911C4.22432 87.0399 4.3876 88.0862 4.5361 89.1257C5.32994 94.6825 6.67644 100.638 8.97072 105.643C9.44995 106.689 9.89175 107.713 10.3265 108.722C11.052 110.404 11.7579 112.041 12.5855 113.655C13.0833 114.626 13.7524 115.547 14.5158 116.522C14.6971 116.754 14.8863 116.992 15.0795 117.234C15.6707 117.978 16.2992 118.768 16.8517 119.571C17.3437 120.287 17.9055 120.968 18.5166 121.702L18.6128 121.817C19.1835 122.502 19.7959 123.237 20.3539 124.021C21.5347 125.679 22.7856 126.933 24.1624 128.313C24.8329 128.986 25.5332 129.688 26.2698 130.481C27.4684 131.772 29.2023 132.827 30.9872 133.914C31.3106 134.111 31.6357 134.308 31.9595 134.509C32.7051 134.97 33.4747 135.512 34.2056 136.026C34.5604 136.276 34.906 136.519 35.2354 136.743C36.2976 137.467 37.2995 138.079 38.3242 138.476C49.122 142.655 60.2052 144.438 71.8084 146.122C74.2702 146.48 76.7567 146.464 79.3206 146.349C80.091 146.315 80.877 146.271 81.6721 146.227C83.475 146.126 85.3244 146.022 87.1433 146.022C88.8935 146.022 90.676 145.499 92.5783 144.751C93.341 144.451 94.095 144.126 94.8682 143.794C95.0584 143.712 95.2497 143.63 95.4427 143.547C96.4058 143.135 97.3983 142.721 98.3952 142.376C99.4957 141.995 100.594 141.482 101.759 140.919C101.901 140.851 102.044 140.782 102.188 140.712C103.203 140.219 104.275 139.7 105.362 139.265C106.329 138.878 107.357 138.573 108.306 138.29C108.409 138.26 108.511 138.229 108.612 138.199C109.677 137.881 110.635 137.581 111.484 137.195C116.023 135.132 120.557 132.994 124.089 129.798C128.16 126.115 132.308 122.352 135.474 118.237C136.577 116.804 137.382 115.12 138.24 113.326C138.33 113.138 138.421 112.948 138.512 112.757C139.02 111.701 139.6 110.658 140.151 109.668C140.409 109.204 140.66 108.751 140.895 108.315C141.656 106.899 142.307 105.534 142.722 104.058C145.185 95.3008 147.051 87.0902 147.051 78.0236C147.051 69.9126 145.387 62.3305 143.207 54.4839C142.75 52.8371 141.955 51.2944 141.048 49.6391C140.948 49.4551 140.845 49.2694 140.742 49.0817C139.939 47.6259 139.076 46.0595 138.459 44.3922C138.249 43.8268 137.91 43.2929 137.462 42.6322C137.425 42.5765 137.386 42.5196 137.346 42.4615C136.949 41.8775 136.468 41.171 136.122 40.391C136.059 40.2509 135.993 40.1166 135.918 39.9663C135.847 39.8244 135.759 39.651 135.677 39.4766C135.506 39.1082 135.334 38.6738 135.235 38.1285C135.227 38.0844 135.204 38.0053 134.842 37.6043C134.824 37.5846 134.805 37.5633 134.784 37.5404C134.491 37.2198 133.914 36.5894 133.736 35.6969C133.649 35.2622 133.399 34.7769 132.939 34.2151C132.48 33.6531 131.875 33.0913 131.176 32.4923C130.937 32.2872 130.674 32.0681 130.405 31.8432C129.941 31.4557 129.456 31.0511 129.033 30.6714C128.348 30.0553 127.646 29.3523 127.153 28.5641C126.818 28.0269 126.387 27.522 125.869 26.9153C125.801 26.8345 125.73 26.7519 125.658 26.6672C125.124 26.0383 124.508 25.2938 124.048 24.4371C122.255 22.4762 120.133 21.0916 117.792 19.8477C116.714 19.2752 115.61 18.7425 114.469 18.1919C114.337 18.128 114.204 18.0639 114.071 17.9994C112.798 17.3847 111.488 16.7438 110.192 16.0241C109.838 15.8275 109.484 15.6313 109.13 15.4352C106.954 14.2284 104.779 13.023 102.609 11.721C101.308 10.94 99.8855 10.3075 98.377 9.68826C97.9641 9.51877 97.5403 9.3486 97.1108 9.17613C96.0057 8.73241 94.8629 8.27353 93.7715 7.77212C91.3881 6.67704 89.0298 5.62504 86.6789 5.21618C85.1443 4.9493 83.6754 4.64362 82.2403 4.34498C78.792 3.62737 75.5392 2.95045 72.0413 2.95045C71.5938 2.95045 71.1473 2.95012 70.7017 2.9498C66.0772 2.94641 61.5487 2.9431 57.0146 3.30583C40.1249 4.657 24.7396 15.2323 16.677 30.0137C16.0187 31.2204 15.302 32.4045 14.6062 33.5542C14.376 33.9345 14.148 34.3111 13.9252 34.6836C13.0156 36.204 12.1686 37.6913 11.4771 39.2472C9.57904 43.5178 8.46024 47.5367 7.17948 52.1475Z" fill="#1E429F" style="fill:#1E429F;fill:color(display-p3 0.1176 0.2588 0.6235);fill-opacity:1;"/>
<path fill-rule="evenodd" clip-rule="evenodd" d="M67.2861 53.9503C68.3011 54.4786 68.9188 55.2564 69.2397 56.1742C69.5361 57.0219 69.5552 57.9337 69.5552 58.6642C69.5552 58.8305 69.558 59.0449 69.5609 59.2597C69.5643 59.5163 69.5678 59.7733 69.5663 59.9492C69.563 60.3543 69.5416 60.8038 69.4362 61.2609C69.1995 62.2884 68.6097 63.0648 67.6515 63.8101C67.4437 63.9717 67.2018 64.1921 66.8989 64.4772C66.8441 64.5287 66.7873 64.5825 66.7287 64.6378C66.4817 64.8714 66.2043 65.1336 65.9236 65.3814C65.2709 65.9577 64.3386 66.7039 63.2535 66.945L63.2136 66.9539C62.751 67.0568 61.9295 67.2394 61.1026 67.3479C60.677 67.4038 60.214 67.445 59.7733 67.4395C59.3685 67.4344 58.832 67.3903 58.3423 67.1754C58.3408 67.1755 58.296 67.1614 58.1728 67.1414C58.0995 67.1295 58.0213 67.1188 57.919 67.1048L57.9173 67.1046C57.8214 67.0915 57.7026 67.0752 57.5824 67.0553C57.356 67.0176 57.0199 66.9514 56.6869 66.8007C56.3336 66.6407 55.9095 66.3513 55.6363 65.8354C54.9968 64.6275 54.7524 63.121 54.7878 61.8839C54.8331 60.2975 55.1958 57.8646 56.1252 56.2381C57.2362 54.2939 59.3282 53.2624 61.3482 52.9271C63.347 52.5952 65.5815 52.8875 67.2861 53.9503ZM61.8312 55.8363C60.3565 56.0811 59.2143 56.7762 58.6857 57.7013C58.1127 58.704 57.7758 60.5609 57.7356 61.9681C57.7145 62.7056 57.8479 63.5233 58.1023 64.152C58.1644 64.1618 58.2327 64.1713 58.3167 64.1827L58.3328 64.1849C58.4234 64.1973 58.5343 64.2125 58.6449 64.2304C58.8598 64.2652 59.1853 64.3265 59.5089 64.4669C59.5088 64.4668 59.5087 64.4668 59.5088 64.4667C59.5093 64.465 59.5945 64.488 59.8103 64.4907C60.0572 64.4938 60.3676 64.47 60.719 64.4239C61.4148 64.3327 62.1301 64.1737 62.5999 64.0693L62.6138 64.0662C62.8919 64.0044 63.3279 63.7393 63.9717 63.1708C64.211 62.9595 64.4423 62.7409 64.6862 62.5104C64.7491 62.451 64.8128 62.3908 64.8777 62.3297C65.1776 62.0475 65.5108 61.7391 65.841 61.4823C66.4452 61.0123 66.5227 60.7715 66.5625 60.5987C66.5955 60.4557 66.6147 60.2594 66.6174 59.9251C66.6191 59.7166 66.6163 59.5534 66.613 59.366C66.6098 59.1791 66.6061 58.9681 66.6061 58.6642C66.6061 57.9213 66.5689 57.4706 66.4559 57.1476C66.3749 56.9158 66.2514 56.7293 65.8962 56.5517L65.8264 56.5168L65.7608 56.4748C64.7914 55.8544 63.3019 55.5921 61.8312 55.8363Z" fill="#1E429F" style="fill:#1E429F;fill:color(display-p3 0.1176 0.2588 0.6235);fill-opacity:1;"/>
<path fill-rule="evenodd" clip-rule="evenodd" d="M93.1379 53.3809C91.9359 52.9512 90.7946 52.8206 89.7417 53.0333C88.5935 53.2653 87.6837 53.8793 87.0093 54.694C85.7189 56.253 85.2876 58.5299 85.2876 60.5707C85.2876 62.7064 86.4325 64.3303 87.832 65.4499C88.0813 65.6494 88.3633 65.7743 88.5543 65.8499C88.7711 65.9357 89.0086 66.0103 89.2439 66.0749C89.7161 66.2045 90.2643 66.3171 90.7954 66.4053C91.3284 66.4938 91.8732 66.5626 92.3438 66.5989C92.7408 66.6296 93.2921 66.6572 93.7116 66.5639C93.7487 66.5557 93.7865 66.5473 93.8248 66.5388C94.8451 66.3128 96.2481 66.0019 97.3865 65.301C98.008 64.9184 98.5973 64.3956 99.0253 63.6699C99.4563 62.939 99.6743 62.0858 99.6743 61.1214C99.6743 60.9601 99.6774 60.7846 99.6807 60.5989C99.6941 59.8407 99.7104 58.9143 99.5303 58.1053C99.2637 56.9078 98.5863 55.8677 97.2369 55.0966C96.6263 54.7477 96.0336 54.4825 95.4863 54.2455C95.3945 54.2058 95.3045 54.167 95.2158 54.1288C94.7609 53.9329 94.3415 53.7523 93.9029 53.533C93.6571 53.4101 93.3934 53.3623 93.1379 53.3809ZM92.9033 56.3261C93.3112 56.5199 93.7057 56.6896 94.0673 56.8451C94.1515 56.8814 94.2339 56.9168 94.3143 56.9517C94.8446 57.1813 95.3122 57.3934 95.7737 57.6571C96.3937 58.0114 96.5635 58.3497 96.6518 58.7462C96.7488 59.1819 96.7423 59.6362 96.7325 60.3188C96.729 60.5558 96.7252 60.8204 96.7252 61.1214C96.7252 61.6292 96.6148 61.9518 96.4851 62.1719C96.3523 62.3971 96.1485 62.6001 95.8405 62.7897C95.1628 63.2069 94.2247 63.4289 93.0718 63.6851C93.1001 63.6789 93.0966 63.6789 93.0535 63.6789C92.9892 63.679 92.8367 63.6792 92.5709 63.6586C92.2006 63.63 91.7425 63.5731 91.2785 63.4961C90.8126 63.4187 90.3697 63.3258 90.0246 63.2311C89.8513 63.1835 89.7236 63.1411 89.6397 63.1079C89.629 63.1037 89.6197 63.0999 89.6119 63.0966C88.7088 62.3542 88.2366 61.5175 88.2366 60.5707C88.2366 58.8075 88.6327 57.3577 89.281 56.5745C89.576 56.2181 89.9134 56.0073 90.3257 55.9239C90.7576 55.8367 91.4012 55.8645 92.3261 56.2254C92.5159 56.2995 92.7117 56.3316 92.9033 56.3261ZM89.5761 63.0802C89.5761 63.0802 89.5773 63.0808 89.5796 63.0821C89.5772 63.0809 89.576 63.0802 89.5761 63.0802Z" fill="#1E429F" style="fill:#1E429F;fill:color(display-p3 0.1176 0.2588 0.6235);fill-opacity:1;"/>
<path fill-rule="evenodd" clip-rule="evenodd" d="M75.7933 95.0227C74.4348 95.0408 73.0721 95.0589 71.7049 95.0589C65.975 95.0589 57.6298 97.711 52.8523 100.521C51.6664 101.219 49.6323 102.876 47.8353 104.771C46.9457 105.709 46.1513 106.668 45.5659 107.551C44.958 108.469 44.6712 109.166 44.6164 109.604C44.5136 110.426 43.7639 111.009 42.9419 110.906C42.1199 110.804 41.5368 110.054 41.6395 109.232C41.7811 108.099 42.3763 106.934 43.0648 105.895C43.776 104.821 44.6928 103.725 45.6583 102.707C47.5714 100.689 49.8228 98.8228 51.3313 97.9354C56.4798 94.9069 65.3446 92.0589 71.7049 92.0589C72.9851 92.0589 74.2961 92.0415 75.6257 92.0239C79.0656 91.9782 82.6302 91.9309 86.1085 92.1789C90.9719 92.5256 95.8479 93.4536 100.368 95.8324C101.776 96.5736 104.148 98.5213 106.131 100.587C107.139 101.637 108.102 102.774 108.823 103.872C109.503 104.907 110.133 106.149 110.133 107.349C110.133 108.178 109.461 108.849 108.633 108.849C107.804 108.849 107.133 108.178 107.133 107.349C107.133 107.081 106.942 106.472 106.315 105.519C105.73 104.628 104.901 103.638 103.967 102.665C102.067 100.685 99.9574 99.0066 98.9704 98.4871C94.9567 96.3747 90.5372 95.5022 85.8952 95.1713C82.5517 94.933 79.1855 94.9777 75.7933 95.0227Z" fill="#1E429F" style="fill:#1E429F;fill:color(display-p3 0.1176 0.2588 0.6235);fill-opacity:1;"/>
</svg>
